<svg version="1.1" id="OBJECTS" xmlns="http://www.w3.org/2000/svg" x="0" y="0" viewBox="0 0 431.4 430.9" xml:space="preserve"><style>.st0{stroke-width:.5}.st0,.st1{fill:#f2f2f2;stroke:#fff;stroke-miterlimit:10}.st4{fill:#404040}.st5{font-family:&apos;Rubik-Regular&apos;}.st6{font-size:6px}.st7{fill:#fff}.st8{font-size:3.9858px}.st9{font-size:5px}.st10{font-size:9.3px}.st11{font-size:4px}.st12{font-size:7px}.st14{font-size:3px}</style><path class="st0" d="M64.4 278.1c.8-.7 2 .7 3.1.8.8 0 1.6-.2 2.2-.6-.6-.2-1.3-.3-2-.3-1.8-.1-1.9-2.2-3.5-1.5-1.4.7-3 1-4.6.8 0 .6-.4 1.4-.5 2.2.3-.1.7-.2 1.1-.2 1.1-.2 3.4-.6 4.2-1.2zm.8 8.4c.8-.6 2.4-2 3-1.8.5.2 1.1-.1 1.3-.6 0-.3-1.1-1.4-.2-1.7.5-.3.8-.8.8-1.4-.3-.2-.6-.2-.9-.2-.7.1-5.3.4-5.3.4-.6.4-1.3.7-2 .8-.6-.1 0-1-1.8-.5.9 1.1 1 1.7 2.9 2.2 2.1.6-.2 1.7 1.6 2.7.1.1.3.2.4.3l.2-.2z"/><path class="st1" d="M216.8 233.3c.6 1.5 1.1 6.7-.2 8.8s-.7 2.6.6 3.4 1.9 2.6 1.9 4.1.9 1.3 1.1 4.5c.2 3.2.9 5.4 2.1 6.7.8 1.1.8 2.6.3 3.8 1.5 1.2 3.1 2.1 4.9 2.8 3.9 1.4 5.3 2.5 5.6 3.9s3.6 3.9 4.5 2 3.1-.8 4.7-.8 2 2 2.2 3.1 4.2.6 5.6 1.4 1.9 3.9 3.9 5 3.6-1.4 5-.6 5 1.7 7.2.8 3.6.8 6.4.6 6.4.8 7.2 1.7c.4.4 2.8.9 4.9 1.2.6-1.1-.5-4.7-.4-5.5s6.7-6.7 7.9-8 2.8-1.3 3.7-3-2.6-7.1-3.4-8.2-1.1-5.6-.6-7.5-2.8-3-2.8-4.3 3.2-3.6 4.9-4.3 1.1-6-.4-7.3c-1.7-1.6-2.2-4.2-1.3-6.4.9-2.6-5.6-4.7-6.5-4.7-.2 0-.3-.2-.3-.4-5.8 1.1-20.8-.5-21.9-.9-.7-.3-2.6-1-4.3-1.6-1 1.6-2.8 2.5-4.6 2.4-3.6 0-3.9-3.6-4-5.2s-14.6 1.4-18.5 5.2-12.8 2.4-13.1 4.5c-.2 1.5-1.5 2.3-2.4 1.9-.1.2 0 .6.1.9zm33 120.3c-.3-1.7 5-9.4 6.4-9.4 1.1 0 1.5-7.4 1.1-11.3-2.3-1.7-4.9-3-7.6-3.9 0 0-11.2-.5-13-1.3s-3.7 2.4-5.4 1.1c-1.1-.8-2.5-.5-3.3.6-.3.5-.5 1.1-.4 1.7.4 1.9 3.9 3 3.9 5.8s7.1 6.9 6.9 8.4c-.1 1 4.3 3.9 6.9 7.7 1.5 1 2.9 2.1 4.3 3.2.1-.8.2-1.7.2-2.6z"/><path class="st1" d="M238.3 345.3c.2-1.5-6.9-5.6-6.9-8.4s-3.5-3.9-3.9-5.8c-.2-1.3.7-2.5 2-2.7.6-.1 1.2.1 1.7.4 1.7 1.3 3.5-1.9 5.4-1.1s13 1.3 13 1.3c2.7.9 5.3 2.2 7.6 3.9 0-.6-.2-1.2-.4-1.8-1-2.4 0-5-2.7-6-1.4-.5-2-2.9-2.2-5.1-1.3.4-2.3.7-2.9.9-2.2.6-7 .3-8.6-2-1.2-1.7-5.1-4.1-7-5.2-.8.7-3.8 3.2-5 3.4-1.5.2-.6 4.1-2.1 4.1s-2.6 2.6-3 3.7-3.7-.8-5.2-.2c-2 .5-3.9.9-5.9 1.1.3 1.7.2 3.6 1.5 3.6 2.3 0 6.4-.2 6.5 2.8s5.5 9.6 7.5 11.9 6.5 1.8 6.7 3.6 3.5 3.6 7.2 3.9c1.3.2 2.5.7 3.5 1.5-2.6-3.9-6.9-6.7-6.8-7.8zm27.7 35.9c1.9-.4.8-1.9 2.1-3.2 1.3-1.4 2.3-3.1 3-4.9 0-.1.1-.2.2-.2-2.5-1.9-4.3-3.3-4.9-5.2s0-5.9.9-8.8c-1.5-1-5.9-4.1-7.3-4.1s-3.5 3.1-4 6c3.3 1.7 4.6 3 2.3 5.3s-2.9 10.4-.3 12.5 3.2 6 5.6 7.2c.6-2.1 1.1-4.3 2.4-4.6zm-35.6-92.1c-2.2-2.5-7.8-2.5-7.8-2.5-.3 1.4-.8 2.7-1.4 3.9-.7 1.2-4.8 1.1-7.3.5-.7 1-4.1 1.7-4.6 3.1-.6 1.7-4.7.8-3.4 5.2 1.3 4.5-2.1 3-3.4 2.4s-7.1.2-8.6 1.7c-1.3 1.2-3.3 1.4-4.9.4-1.3-.7-3.9-1.1-5 .7s-3.2-1.5-4.9-1.3-.9 3.7-.9 4.5 2.6 3 4.3 2.3 3.7.2 5.2 1.1 4.3-.8 5.2-1.7 6.2-.9 6.7-.9.8 3 1.7 3.6 4.5.9 7.7 1.1 7.9 1.7 9.4 1.7 3.9-2.6 7.3-2.6 5.2-2 5.8-1.9c.2-1 .6-1.9 1.4-2 1.4-.2.4-2.5 1.4-3.7s-.8-3.5 1-3.3 3.7.4 3.7-2.1c0-.9.5-1.7 1.1-2.2-1.4-2.2-2.5-4.5-3.3-7 .1-.2-4.2 1.5-6.4-1z"/><path class="st1" d="M284.5 296.1c-.7-.3-1.4-.7-2-1.2-2.4-.5-4.6-1.2-5.3-1.9-1.4-1.4-7-2.2-7.8-2.5s-6.1 5-7.8 5-8.9.8-8.9 2.8-8.9 2.2-11.4 0c-.4-.4-.8-.8-1.1-1.3-.7.6-1.1 1.4-1.1 2.2 0 2.5-2 2.3-3.7 2.1s0 2.1-1 3.3 0 3.5-1.4 3.7c-.7.1-1.1 1-1.4 2 .6.3 2 3.1 2 3.1l-.2.2c1.9 1.1 5.8 3.6 7 5.2 1.7 2.2 6.4 2.5 8.6 2s11.7-3.6 11.7-3.6c1.2.4 2.4.8 3.6 1.1.3.1 1.2.2 2.4.4.7-.7 2.8-1.3 5-3.5 2.6-2.6 6.5-12 7.7-12.7s4.1-2.4 5.6-3.5 1.2-2.3-.5-2.9zm-34.6-19.2c-1.4-.8-5.3-.3-5.6-1.4s-.5-3.1-2.2-3.1-3.9-1.1-4.7.8-4.2-.6-4.5-2-1.7-2.5-5.6-3.9c-1.7-.7-3.4-1.7-4.9-2.8-.1.3-.3.6-.5.9-.8 1.1-3.4-.9-4.5.2s-4.9 1.3-6.9 3.2-6.4 2.8-8.8 3.4-.4 2.8.6 4.5.9 5.8 2.8 7.1c1.9 1.3 8 5.2 8.8 6.5.1.2.1.5-.1.6 2.6.7 6.6.7 7.3-.5.6-1.2 1.1-2.5 1.4-3.9 0 0 5.6 0 7.8 2.5s6.4.8 6.4.8.2.7.6 1.7c.6-1.4 1.4-2.6 2.3-2.7 2.4-.3 5.7-.7 8-4 1.3-1.7 3-3 4.9-4-.9-1.3-1.5-3.3-2.6-3.9z"/><path class="st0" d="M272.5 282.7c-2.8.3-4.2-1.4-6.4-.6s-5.9 0-7.2-.8-3.1 1.7-5 .6c-.4-.3-.8-.6-1.1-1-1.9 1-3.6 2.3-4.9 4-2.4 3.4-5.7 3.7-8 4-1 .1-1.7 1.4-2.3 2.7.8 2 2.2 5.2 3.9 6.6 2.5 2.2 11.4 2 11.4 0s7.2-2.8 8.9-2.8 7-5.3 7.8-5 6.4 1.1 7.8 2.5c.7.7 3 1.4 5.3 1.9-.9-.7-1.6-1.7-1.8-2.9 0-1.5 2.8-5.4 3.7-6.2.1-.1.1-.2.2-.3-2.1-.3-4.5-.8-4.9-1.2-1-.7-4.7-1.8-7.4-1.5z"/><path class="st1" d="M36.4 402.3c3.3-.6-.9-3.3-1.8-4.2s.3-4.5 2.1-4.5 0-2.1-2.4-4.5 0-3.3 2.1-3.3-.6-3.6 1.5-5.8-.6-6.1-.6-7.9 3-2.4 5.5-4.9-2.1-1.5-2.1-3.3-3-2.4-5.2-.9-1.5 0-3.3 0-5.2.6-5.2-1.2-1.5-2.1-3-.3c-.6.6-1.4 1-2.2 1-.2 2.4-.5 4.6.2 5.7 1.6 2.6-2 16.5-5.2 20.2s-.1 4.7 3.2 7.4 1.1 12.1 1.1 14.3 3 1.6 6.5 1.6c2.1 0 4.4-.9 6.7-1.3-.7-.8-1.1-1.8-1.3-2.8 0-2 0-4.7 3.4-5.3zm97.9-142c1.5-1.5 4.2-.8 5.7.8s3.8 1.9 6.1 4.2c.6.6 1.2 1.1 1.8 1.6.2-1.6.3-4.8 1-6.5s-.8-4 .5-4 4.7 0 4.7-2.2 1-1.5 1.8-2.8-2.2-3.7-2.8-4.5 2.3-1 4.2-4c.7-1.1.4-3.3-.3-5.7-.3.9-1 1.5-2.1.9-1.9-1.1-4.7-.5-8.5.3s-4.9 4.4-3.5 5.9-3.6 2.3-4 .3-4.1-.6-3.9 2-4.1 3.6-3.9 6.9c.2 3.3-4 6.2-6.7 7.9l-1.3.8c.9.5 2 .9 3 1.1 2.5-.3 6.7-1.4 8.2-3z"/><path class="st0" d="M148.5 274.8c-1.7.9-3.2 2.9-2.9 7.2 1.9-.1 3.7.2 5.6.6-.4-4.6-2.2-6-2.7-7-.2-.3-.1-.6 0-.8z"/><path class="st1" d="M118.8 265.5c.2 1.3 2.2 4.5 3 3.2s2.6 1.7 4.3 2.6 5 2.1 5.2 3.2.8 3.5 2.4 2.8 3.7-3.4 3.7-1.9.6 4.3 2.4 3.9 2.4 3.2 4.3 2.8c.4-.1.9-.1 1.4-.1-.2-4.2 1.3-6.2 2.9-7.2.4-.7 1.5-1.5 1.7-2.4.3-1.2-2.5-3.7-2.3-5.2v-.3c-.6-.5-1.3-1-1.8-1.6-2.3-2.3-4.6-2.7-6.1-4.2s-4.2-2.3-5.7-.8-5.7 2.7-8 2.7c-1-.2-2.1-.6-3-1.1-1.7 1.1-3.6 1.9-5.6 2.4.5.6 1.1.3 1.2 1.2zM334.7 327c-1.7-.3-4-1-3.2-2l.2-.3c-2.3-1.9-3-8-1.5-9.5 1.9-1.9-3-9.1-5.3-11.8-1.1-1.3-3.4-5.4-5.6-9.5-2 .6-3.7 1.4-4.1 1.9-1.2 1.4-2.9 2.3-4.7 2.5-1.5 0-3-.8-4.2.5s-3 1.8-3.7 1-3.2-1.5-5-1.5-7.2-1.5-8.5-1.5c-1.1 0-2.2.1-3.3.3.3.5.1 1.2-.8 1.8-1.5 1.1-4.5 2.8-5.6 3.5s-5 10.1-7.7 12.7-5 3-5.2 3.9 3 3.4 3 4.9c-.2 1.5.9 2.8 2.4 3h.4c2.1 0-.2 4.9 1.1 5.2s9.4.9 9.4 2.8c0 1.5.9 2.7.5 3.7 2.3.4 3.9 3.5 4.8 3.2s7.7 1.2 9 1c3-.2 6-.1 9 .3 2.3.1 4.5-.8 6-2.5 1.8-1.8 8-2 10-1.8s6 .8 6.7 2c.4.6 2.7 1.6 5.1 2.4.3-1.2-.1-2.9 0-4.4.1-2.6 1.6-6.6 4.2-6.9s4.7-.3 4.4-4.6v-.4c-.9-.9-1.9-1.6-3-2.1-1 .2-4 2.3-4.8 2.2z"/><path class="st1" d="M338.2 300.5c-.9-2.6-3.3-4.4-6-4.5-1.8 0-4.7-4-6.7-3.7-2.1.4-4.1.9-6.1 1.6 2.2 4.1 4.5 8.3 5.6 9.5 2.3 2.7 7.2 9.9 5.3 11.8-1.5 1.5-.9 7.6 1.5 9.5 1.1-1.4 4.8-6 4.8-7.4s.3-4.5 3.2-3.7 5.7 2 5.7 1-.8-4.2-2-5.5c-2.4-2.5-4.1-5.4-5.3-8.6zM322 338.9c-2-.3-8.2 0-10 1.8-1.5 1.7-3.7 2.6-6 2.5-3-.3-6-.4-9-.3-1.2.3-8-1.3-9-1s-2.5-2.9-4.8-3.2c-.1.3-.4.6-.7.8-1.7 1.1-1.9 4.1 0 5.8s4.3 5.4 2.6 5.4-3 2.2-2.8 3.4-.6 3.5 0 4.1 4.5 4.3 4.7 5.4 1.8 1.5 1.7 2.4c3.1-.2 9.8-.6 11.3.1 2 1 9 1.5 9 1.5 2 0 3.7-.8 3.2-2-.4-1 2.2-1.8 4-1.9-.3-1.1-.5-2.1-.1-2.3.9-.4 6.4-1.1 8.6 0 1.2.4 2.5.2 3.4-.6-.3-1-.6-1.9-1.2-2-1.4-.3-3.5-6-1.8-6.4s4-6.4 6.7-7.2c.9-.2 1.6-.9 1.8-1.8-2.4-.8-4.7-1.8-5.1-2.4-.5-1.3-4.5-1.8-6.5-2.1z"/><path class="st1" d="M271.2 372.9c.1-.1.2-.1.3-.1h.1c.2 0 .3-.1.5-.1h.1c.7-.1 1.7 0 2.7 0h1.2c.3 0 .6-.1.8-.2 2.2-.6 2.8-3 3.9-2.4s7.1-2.5 7.9-3.6c.1-.1.1-.2.2-.4.1-.9-1.5-1.4-1.7-2.4s-4.1-4.9-4.7-5.4c-.1-.2-.2-.4-.2-.6v-1c-5.9.9-14.5 2.7-14.5 2.7l-.5-.4c-.9 2.9-1.5 6.8-.9 8.8s2.3 3.2 4.8 5.1z"/><path d="M428.5 286.2c0-.7 2.6-2 2.4-3.5s-2.4-1.7-4.9-3-4.9-.8-7.1-1.9-6.9-.4-6.9-1.1-3-3.2-3.7-4.5-3.2-.6-4.7.4-2.8 1.3-4.3.4-2.8-2.4-4.1-1.9-3.7.2-3.2-1.7-2.4-6-3.7-6.5-5.2.4-6.2-1.5-2.6-3.4-1.9-4.7-.2-4.9-1.1-6.4-5.6-1.3-6.9-.8-4.3-.6-5.6.2-2 2-3.9 2c-.9.1-1.8-.3-2.3-1-1.7.6-3.6 1-5.4 1.1 0 0-5 4-5 5.5s-.2 4-1.5 2.8-6.5-1.3-7.7-.5-3.2-3-5.5-1.8-5.2-1.7-5.5-.5-3.5.3-5.7-.8-6.2.5-7.7-1.3-11.2-1.7-14.5-1.7-4 1.7-5.5 3.2c-1.5 1.5-2.9 1.1-4.5 1 .1 1 .3 2 .7 2.9.8 1.1 4.3 6.5 3.4 8.2s-2.6 1.7-3.7 3-7.7 7.1-7.9 8 1.1 5 .2 5.8-3.7 4.7-3.7 6.2 2.1 3.6 3.7 4.1c.6.1 1.1.5 1.4 1 1.1-.2 2.2-.3 3.3-.3 1.3 0 6.7 1.5 8.5 1.5s4.3.7 5 1.5 2.5.2 3.7-1 2.8-.5 4.2-.5c1.9-.2 3.6-1.1 4.7-2.5.8-1.3 8.2-3.3 10.2-3.5s5 3.7 6.7 3.7c2.7.1 5.1 1.9 6 4.5 1.2 3.1 3 6 5.2 8.5 1.2 1.3 2 4.5 2 5.5s-2.7-.3-5.7-1-3.2 2.3-3.2 3.7-4.2 6.7-5 7.7 1.5 1.8 3.2 2c.7.1 3.7-2 4.7-2 1.1.5 2.1 1.2 3 2.1-.3-3.9.5-3.7 4-6.3s4-7.9 7.2-8.5 4.6-2.1 9.4-1.4-2.4 3.7.9 5.5c2.1 1.1 7.2.6 10.5.8 4.4-.7 8.8-.6 13.1.2 2.2-2 6.4-4.6 9.2-4.9 3.7-.4 7.4-1.5 10.7-3.2 2.2-.9 4.5-1.5 6.9-1.9-.4-1.8-.9-3.8.2-4 1.3-.2 5.2-4.5 6.5-4.5s6.9 1.1 6.9.2 1.9-4.1 1.5-5-2.2-2.2-1.9-3.2 3-.9 3-2.1-2.1-1.6-2.1-2.3z" fill="#d3ad89" stroke="#fff" stroke-miterlimit="10"/><path class="st1" d="M290.2 202c2.3 0 7.6 1.1 10.7 0s3 2.3 5 1.9 5.7 2.3 8 4.2c1.3 1 2.7 2 4.2 2.8.4-.7 1-1.3 1.6-1.8 2-1.5 4-.8 5.7-.8s2-2 3.3-3c.8-.5 1.7-.9 2.6-1.1-.7-1.4-.7-4.1-1.8-5.2-1.3-1.3-3.2-3.6-2.6-4.9.7-1.6.3-3.5-.9-4.7-.6-.6-1.1-1.3-1.4-2.1-3-.4-7.1-.8-8-.5-1.5.5-7.5-4.2-8.5-5-.6-.5-5.1-.2-9.1.1-2.3 2.6-.6 4.4-.8 8.3s-4.5 3.2-6.9 3.2-6.2-7.1-7.5-8.7-5.3 2-8.1 3.7-1.4 5.1-3.4 6.7-3.2 4.4-1.3 8c.1.1.1.3.2.4 2.5-.2 5.1-.7 6.7-1.8 2.8-1.6 10 .3 12.3.3z"/><path class="st1" d="M276 215.7c.9 1.3 3.9 2.4 5 1.9s4.7 1.3 4.7 2.8-.9 6 0 6 6.2 1.7 6.6 3.9c2.1 0 4.1.1 6.2.4 2 .5 3.2-.8 4.2-2s4.5-1.8 5.5-1.8 1-2.7 1.3-4 2.8-3.5 4.2-4 1.2-2.3 2.7-2.3 1.2-2 1-3.3c-.1-.9.1-1.9.6-2.7-1.5-.8-2.9-1.7-4.3-2.8-2.3-1.9-6.1-4.6-8-4.2s-1.9-3-5-1.9-8.4 0-10.7 0-9.5-1.9-12.2 0c-1.5 1.1-4.2 1.6-6.7 1.8 1.6 2.9 1.3 6.6-.8 9.2-1.4 1.5-.6 1.7.4 2.3 2.3.1 4.6-.3 5.3.7z"/><path class="st0" d="M182.6 309.9c-1.7.7-4.3-1.5-4.3-2.3-.2-1.2-.2-2.4 0-3.5-1.6-.8-3.2-1.5-4.9-2.1-2.5-.8-3.7-.8-5.7.3-1.3.6-4.8.5-7.2.3 0 .6-.5 1.1-1.1 1.2-2 .2-3.7 1.6-4.3 3.6-.4 1.9-4.3 3.4-5.4 6.7s-.6 4.9 1.1 2.8 3.7-1.3 3.7.4 2.2 1.9 1.5 4.1v.1c2.6-.2 6.1-.5 7.2-.5 1.7 0 3.5-5.5 4.2-6s2.8 4 4.7 5.7 2.2-1.5 2.2-3 1.7-2 3-1.7 4 .8 4-1 1.5-1 2.5-1 1.3-2 1.3-2l1.6-1.5c-1.2-.9-2.7-1-4.1-.6z"/><path class="st1" d="M157.4 242.9c-2 3-4.7 3.2-4.2 4s3.5 3.3 2.8 4.5-1.8.5-1.8 2.8-3.5 2.2-4.7 2.2.2 2.3-.5 4-.8 5.2-1 6.7 2.5 4 2.3 5.2-2.3 2.3-1.7 3.2 2.3 2.4 2.7 7c.7.1 1.4.5 1.9 1 1.3 1.7 3.3 2.7 5.4 2.6 2.4 0 3.4 1.7 4.5 1.5s4.1.8 1.7 2.8-2.8 4.5-3.4 6.9c-.4 1.6-.3 3.8-.7 5.1 2.4.2 5.9.4 7.2-.3 2-1 3.2-1 5.7-.3 1.7.6 3.3 1.3 4.9 2.1.1-.5.4-.9.9-1 1.7-.2 3.7 3.2 4.9 1.3s3.7-1.5 5-.7c1.5 1 3.5.8 4.9-.4 1.5-1.5 7.3-2.2 8.6-1.7s4.7 2.1 3.4-2.4 2.8-3.5 3.4-5.2 5.4-2.4 4.7-3.7-6.9-5.2-8.8-6.5-1.9-5.4-2.8-7.1-3-3.9-.6-4.5 6.7-1.5 8.8-3.4 5.8-2.1 6.9-3.2 3.7.9 4.5-.2 1.3-3.4.2-4.7-1.9-3.5-2.1-6.7-1.1-3-1.1-4.5-.6-3.4-1.9-4.1-1.9-1.3-.6-3.4.8-7.3.2-8.8c-.1-.3-.1-.7 0-1-.4-.2-.7-.6-.7-1-.4-2-1.7-2.7-5-2.7s2-3.2.7-4.9-4.5 3-7.5 2-6.9 3.5-9.5 5.5-6.4-.4-4.4-3.2 0-2.6-3-1.5-6.6-.3-6.2-3c.1-.7-.1-1.4-.5-1.9-1 .2-2.1.2-3.1.1-2.5-.5-5.1-.8-7.7-.8 1 1.5 2.1 2.9 1.5 4-1.1 2.1.6 4.1 2.2 7.2s-3.5 1.4-3.6 3.4-4.7-.1-6.2-.9-6.5-.3-6.4 1c0 .6 0 1.2-.3 1.8.6 2.5.9 4.8.1 5.8zm188.8-108.4c2-4.5 11-8 12.5-12 .7-2 1-3-2.3-6.7s-10.5-6.2-10.7-8.2 5.5-2.3 5.2-4.7-3.2-2.5-4.5-4.5 1.5-3.3 1.3-4.2-4-1.5-4.2-2.8 2.5-1 2-2.5-3-4.2-1.2-6.5 5.5 0 2.7-5-7-11.2-8-12.7 1-4 2.5-5 5.2-4.7 5.2-6.2-4.7-5.5-6-6.2-4-.5-5.2-3-2.5-3.2-1.3-4.7c1-1.3 1.4-2.9 1.3-4.5 0-1.5 2.7-.3 3.2-2.5.3-1.2 1-2.2 1.9-3.1.1-1.6.1-3.1 0-4.7-.4-2.4-7.2-3.2-8.8-6s-5.6-1.6-6.8 0-8.4-.4-8.4 2-5.2 2.8-5.2 5.6 2.4 7.6-1.6 7.2-1.2 1.6-3.6 4.8-2.4-2-4.8-1.2-5.2-2.4-6.4-.4-5.2.4-9.2-.4-6-6.4-9.2-6.8c-2.1-.3-4.4 1.4-5.6 4.1 3.1 2 5.1 4.9 9.2 6.7 4.4 2 12.4 4.4 12 7.2s-1.6 6.8.4 8-.4 6.4 2 7.6 1.6 7.2-.4 7.2.4 3.2 1.6 4.4c.5.6 1 2.2 1.2 4.2 2.3.7 4.6 1.7 6.8 2.8 3.4 1.5 2.9 3.9 3 6.5s.2 4.1-1.5 3-3.6 0-4.6 3.7-5.7 8.2-8.6 8.5-2.6 3.2-5 3.9-4.6 2-4.5 4.6-3.5 2.9-5.9 2.9-1.9 4.2-3.7 5.4-1.5 2.6.3 4.9.3 4.2.9 5.9 3.4 5.4 1.5 9.5-3.9 9.2-2.2 8.7 5.4 3.4 7.9 3.1 2.8 3.5 5.1 2.7 2.4 2.2 9.2 2 20.7-6 26.2-6c2.5 0 5.1-.3 7.6-.9 1.2-1.8 2.5-3.5 4-5.1 3.2-3.6 10.7-6.1 12.7-10.6z"/><path class="st1" d="M162.9 287.7c-1.1.2-2.1-1.5-4.5-1.5-2.1 0-4.1-.9-5.4-2.6-1.1-1.5-6.9-1.9-8.8-1.5s-2.4-3.2-4.3-2.8-2.4-2.4-2.4-3.9-2.1 1.1-3.7 1.9-2.3-1.7-2.4-2.8-3.6-2.3-5.2-3.2-3.6-3.9-4.3-2.6-2.8-1.9-3-3.2c-.1-.9-.7-.6-1.1-1.1-.6.1-1.3.2-1.9.2-3-.1-5.6 2.3-5.1 7.2s-3.6 5.5-8.7 5.9-3.4 4.4-5.5 6-9.6-.9-10.6-3.6-7.7 0-4.9 3.2 2.7 7.7 1.1 9-5.1-2-7.4-.4-2.4-1.5-5.1-2.5-3.9 1.2-8.2.9-6.9 2.1-5.2 4-.3 3.6 1 5.2 7 1.4 11.2 3.6 5.2.4 7.4 2c2.1 1.6 2.6.6 2.7 3.7s2.5 6.1 6.6 7.2 1 3.9 2.3 6.6-1.9 6.7-1.3 10.1-2 14.2-4 15.2c-.2.1-.3.1-.5.1 1.9.9 3.8 1.8 4.8 2.4 1.8 1.2 5.8 2.4 8.2 3.9s6.7 1.2 6.7-.6 2.4-.6 3.9.9 7.3 1.8 10 2.4c2.3.5 5.7.2 8.7.3-.1-.7-.3-1.5-.5-2.2-1.5-4.9 2.9-7.7 7-8.4 4.1-.7 13.1 1.9 15.5 3.4s5.6 1.1 9.7-3.2c1.4-1.6 3.2-2.8 5.3-3.4.2-1 .5-1.9.9-2.9.6-1.5-2.1-1.1-3.9-1.3-1.4-.1-2.5-1.3-2.4-2.7 0-.5.2-1 .6-1.5 1.3-2.1-1.1-2.3-2.4-4.3s.6-1.5 1.7-2 2.6-2.8 1.7-3.4-1.7-1.9-.9-4.1-1.5-2.4-1.5-4.1-2.1-2.4-3.7-.4-2.3.6-1.1-2.8 5.1-4.9 5.4-6.7c.6-2 2.3-3.4 4.3-3.6 1.7 0 1.3-3.9 1.9-6.4s.9-4.9 3.4-6.9-1-2.9-2.1-2.7zm13.4 63.5c-1.4-.1-1.8 2.4-5.2 4.5s0 11.7 3.5 11.2 3-15.6 1.7-15.7z"/><path class="st1" d="M123.9 357.3c-3-.1-6.4.3-8.7-.3-2.7-.6-8.5-.9-10-2.4s-3.9-2.7-3.9-.9-4.3 2.1-6.7.6-6.4-2.7-8.2-3.9c-1-.6-2.9-1.5-4.8-2.4-2.5.5-9.8-2.2-14.6-1.6-5.1.6-21.4-.8-27.8-.3s-6.7-2.6-10.2-2.6-2 4.2-7 4.4-5.5 3.2-1.9 6.1c2.1 1.6 1.8 5.1 1.5 8.2.8 0 1.6-.4 2.2-1 1.5-1.8 3-1.5 3 .3s3.3 1.2 5.2 1.2c1.9 0 1.2 1.5 3.3 0s5.2-.9 5.2.9 4.6.9 2.1 3.3-5.5 3-5.5 4.9 2.7 5.8.6 7.9.6 5.8-1.5 5.8-4.6.9-2.1 3.3 4.3 4.5 2.4 4.5-3 3.6-2.1 4.5 5.2 3.6 1.8 4.2-3.4 3.4-3.4 5.2c.2 1 .6 1.9 1.2 2.7 1.5-.4 3.1-.2 4.5.3 3.5 1.6 5.5 10.3 10.2 9.7 2-.3 1-1.8 2-2.8s2.9-.2 4.9-.2 3-2.9 7.7-3 7.7-.5 10.7-.4 5.4-.9 6.1-3 3.3-4 6.6-4.5 2.9-4 3.1-6 5.9-5 6.2-6.5-3.2-7.2.1-12.3 7-5.4 7-8.2c0-2.6 3.5-3.6 7.7-4.1s5.6-3.4 9.2-4.9c3.4-.9 4.5-3.1 3.9-6.7z"/><path d="M117.1 386.8c.6 4 7.5-1.4 6-2.6-3.2-2.2-6.6-1.4-6 2.6z" fill="#f2f2f2" stroke="#fff" stroke-width=".89" stroke-miterlimit="10"/><path class="st1" d="M205.3 324.1c2-.8 4.3-1.1 5.4-.7s1.3 1.4 1.5 2.5c2-.2 4-.6 5.9-1.1 1.5-.6 4.9 1.3 5.2.2s1.5-3.7 3-3.7.6-3.9 2.1-4.1 5.2-3.5 5.2-3.5-1.5-3-2-3.2-2.4 1.9-5.8 1.9-5.8 2.6-7.3 2.6-6.2-1.5-9.4-1.7c-1.1-.1-2.3-.2-3.4-.3-.4 3.6-.5 7.3-.4 11.1zm111 39.6c-1.9.2-4.5.9-4 1.9.5 1.2-1.3 2-3.2 2 0 0-7-.5-9-1.5-1.5-.8-8.2-.4-11.3-.1 0 .1-.1.3-.2.4-.8 1.1-6.7 4.2-7.9 3.6s-1.7 1.9-3.9 2.4-5.6-.2-5.8.8c-.7 1.8-1.7 3.5-3 4.9-1.3 1.3-.2 2.8-2.1 3.2-1.2.3-1.7 2.5-2.4 4.5.1.1.2.1.4.2 3 1.1 4.8 4.1 4.5 7.2-.4 3.1 4 4.3 6 2s7.6 1.2 7.6 2.7-5.7-1.6-9 .8 2.5 4.6 1.8 7.1 1.5 6 4.4 5.9 6.1 4.6 7.9 3.7-2.1-7.5-1.5-8.5 4.1 1.8 5.9-.3-1.2-3.5-3.9-3.4-.1-3.5 3-1.6 4.6-.5 6.1-.8 1.9-5.6-2.7-6.9-4 3.4-7 .2 2.8-1.9 2.8-4.5-4.6-6.4-6.9-9.5 3.1-4.6 4.4-2.4 4.6 1.9 6.7 1-2.2-4.9 1.6-6.4 3.9 1.1 5.1 1.6 2.4-3.1 6.4-3.1c2.1 0 3.9 1.4 5.7 2.7 1.1-1.2 2-1.9 2-2.9 0-1.3 2.4-1.9 2.4-3.9-.3-.8-.5-1.9-.9-3zm-7 62.9c-2-1.1-11 .8-13.3-1.5s-7.2 1.8-5.1 2.1c3 .5 7.5 3.1 12.3 3.2s11.5-2.2 11.4-3.5-3.3.8-5.3-.3zM41.7 230.4c-1-.7-2-1.6-2.8-2.5-3.2-3.8-4.5-.8-4.9 1.5s-3.4-.8-5.3-1.1.6-4 1.9-4.9c.9-.6 1.8-2.4 2.3-4.8-.3 0-.7-.1-1-.2-3.5-1.4-8.4-1.4-8.5 1.8s3.9 2 4 4-4 1.5-6.9 3.5-6-1.4-9 .1 3.2 3.3 1 6.4.1 3 3.9 6-2.2 3.7-2.2 7.1-4.6 3.2-5.6 5.5 4 6.7 8.4 6.7c3.1 0 10.3-2 14.6-6s6.5-.1 10.3-2.1 1.5-16.6 0-19.6c-.2-.4-.3-.9-.2-1.4z"/><path class="st1" d="M43.5 216.9c-3.2-3-7.2 1.7-10.6 1.7-.5 2.4-1.4 4.2-2.3 4.8-1.3 1-3.8 4.5-1.9 4.9s4.9 3.4 5.3 1.1 1.7-5.3 4.9-1.5c.8.9 1.8 1.8 2.8 2.5.5-1.7 4.5-2 6.5-4.1 2.5-2.4-1.2-6-4.7-9.4zm68.2 30.9c.3-3.7-8-6.4-8.9-4.4s-2.7 1.8-4.1-.5 1.3-4.4-.1-4.6-3.1-3.4-2.7-4.6-2.1-9.2-6.4-10.2-4.9-7-5.6-10.2-3.5-1.5-5.6-4.2-5.7-1.4-7.6-1.2c-1.9.1 0-3.5 3-5.5s6.5-12.6 6.5-14.7-13.1-2-15.6-.8c-2.5 1.3-5-1.9-2.9-2.8s6.6-5.2 6.4-7 3.1-3.4 1.3-5c-1.9-1.6-2.1 2.1-3.7 3.4-1.6 1.3-5.2.9-9.1.1s-5.4 4.7-5.2 7.1-4.5 3.7-3.7 5.7-.9 3.5-2.1 2.4-2.6-3.9-5.1-1.9 2.9 4.6 6.1 5-2.5 2.7-3.1 6.2 4.2 2 4.5 4.5-7 2.9-7 5.2 4.1-1.1 6-2.1-1 5.9 3.5 5.1 3.2-6.9 4.9-6.6-.7 3.2.6 5.9-3.3 6.6-3 8.5 9.2 1.9 12.1-1.1c2.9-3 4.2.3 2.3 2.5-2 2.3-1.1 4.4 1.4 5.2s3.4 1.1 2.3 3.1-.1 5.7-.8 7.6c-.6 1.9-8.4 1.6-8.6.4s-3.5-.4-2.6 1.4-2.8 3.6-2.5 5.2 4.9 1.2 5 3.2-3.4 4.4-8.1 5.7 1 5.1 3.2 3.5 1.8 1.1 5 1.1 5.2 2.6 8.9 1.3 3.5 0 .8 2.1-6.9-.1-9.4 1.3-12.6 10.9-10.7 13.2c1.1 1.4 2.6-2 6.2-3.5s4.2 1 6.2 1.2c2 .2 2.1-4.1 3.7-3.7s3.1-1.4 6.1-.9c2.4.4 4.8-.3 6.6-1.9 1.5-1.2 5.5 2.5 6.7 1.6s6.7-1.9 9.5-1.8 9.9-3.1 11.7-4.9-1.1-2.1-3.6-1.7-2-2.5.6-5 6.4-4.1 6.7-7.9zm-74.9-62.6c3.4-.1 7.2-5.9 5.6-7.5s-8.1 7.6-5.6 7.5zm48.2-27c2.1-2.1 4.6-10.2 1.4-9.4s-2.3 10.3-1.4 9.4z"/><path class="st1" d="M43.5 216.9c-3.2-3-7.2 1.7-10.6 1.7-.5 2.4-1.4 4.2-2.3 4.8-1.3 1-3.8 4.5-1.9 4.9s4.9 3.4 5.3 1.1 1.7-5.3 4.9-1.5c.8.9 1.8 1.8 2.8 2.5.5-1.7 4.5-2 6.5-4.1 2.5-2.4-1.2-6-4.7-9.4zm68.2 30.9c.3-3.7-8-6.4-8.9-4.4s-2.7 1.8-4.1-.5 1.3-4.4-.1-4.6-3.1-3.4-2.7-4.6-2.1-9.2-6.4-10.2-4.9-7-5.6-10.2-3.5-1.5-5.6-4.2-5.7-1.4-7.6-1.2c-1.9.1 0-3.5 3-5.5s6.5-12.6 6.5-14.7-13.1-2-15.6-.8c-2.5 1.3-5-1.9-2.9-2.8s6.6-5.2 6.4-7 3.1-3.4 1.3-5c-1.9-1.6-2.1 2.1-3.7 3.4-1.6 1.3-5.2.9-9.1.1s-5.4 4.7-5.2 7.1-4.5 3.7-3.7 5.7-.9 3.5-2.1 2.4-2.6-3.9-5.1-1.9 2.9 4.6 6.1 5-2.5 2.7-3.1 6.2 4.2 2 4.5 4.5-7 2.9-7 5.2 4.1-1.1 6-2.1-1 5.9 3.5 5.1 3.2-6.9 4.9-6.6-.7 3.2.6 5.9-3.3 6.6-3 8.5 9.2 1.9 12.1-1.1c2.9-3 4.2.3 2.3 2.5-2 2.3-1.1 4.4 1.4 5.2s3.4 1.1 2.3 3.1-.1 5.7-.8 7.6c-.6 1.9-8.4 1.6-8.6.4s-3.5-.4-2.6 1.4-2.8 3.6-2.5 5.2 4.9 1.2 5 3.2-3.4 4.4-8.1 5.7 1 5.1 3.2 3.5 1.8 1.1 5 1.1 5.2 2.6 8.9 1.3 3.5 0 .8 2.1-6.9-.1-9.4 1.3-12.6 10.9-10.7 13.2c1.1 1.4 2.6-2 6.2-3.5s4.2 1 6.2 1.2c2 .2 2.1-4.1 3.7-3.7s3.1-1.4 6.1-.9c2.4.4 4.8-.3 6.6-1.9 1.5-1.2 5.5 2.5 6.7 1.6s6.7-1.9 9.5-1.8 9.9-3.1 11.7-4.9-1.1-2.1-3.6-1.7-2-2.5.6-5 6.4-4.1 6.7-7.9zm-74.9-62.6c3.4-.1 7.2-5.9 5.6-7.5s-8.1 7.6-5.6 7.5zm48.2-27c2.1-2.1 4.6-10.2 1.4-9.4s-2.3 10.3-1.4 9.4zm99.6 41.6c-1.3-.6-1.8-4.6-.3-5.9s2.1-6 .9-7.2-5.7 0-6.1 3.4-4 1.9-5 2.6 2 2.2.4 3.7-2.2-2.3-4.9-2.5-2.9 4-4.2 6.1-.5 6.6 0 9.6 4.1 4.9 3.2 7.4c-.4 1.2.4 2.5 1.3 3.7 2.6 0 5.2.2 7.7.8 1 .2 2.1.1 3.1-.1-1.1-1.8-3.6-3.2-3.4-4.5.3-1.7 2.6-.6 4.4.9s5.6 1.8 6-.1c.2-1.1-.6-6.5-3-5.2s-3 .8-3.9-.5 1.8-3.2 2.4-5.2 4.7-1.3 5.4-2.9-2.7-3.5-4-4.1zm18.8 7.6c-1-.6-1.8 1.7-2.9 2s-2.4-4.7-2.9-2-3-1.1-5.5 2.4 1.5 6.6 3.2 7.7-.1 2.7-2.4 2.2-.9 3.2 2.2 3.7 6.5-5.5 6.1-7 3.4-8.2 2.2-9zm92.3-132.6c-1.2-1.2-3.6-4.4-1.6-4.4s2.8-6 .4-7.2 0-6.4-2-7.6-.8-5.2-.4-8-7.6-5.2-12-7.2-6.4-5.2-10-7.2-4.8 3.2-4.8 6.4-3.2 3.6-5.6 1.6-5.2 0-8.8-1.6-2 3.6-2 6-4 2.4-6.4 2.4-6.4 2-6.4 4.8-3.6 4.4-2.4 6-.4 3.2-2 4.4c-1.6 1.2-3.2 5.2-4.4 6.4-1.2 1.2.8 3.2-1.6 4.8s-5.2.4-6.4 1.6 0 4-.4 7.6-3.2 7.6-5.6 10.8.8 4 2 4.4 1.2 2.4 0 4.8-4 .8-5.6.4-6 1.6-8.4 5.6-1.6 6.4-.8 8.4-2 4.4 0 8.4-.8 4.8-.4 8 5.2 2.8 5.6 6-1.6 4.4-3.2 4.4-1.2 3.2.4 4 1.2 6.4.4 8-6 0-5.6 2-1.2 5.2-1.2 6.8-.4 6.8-2 5.6c-.8-.4-1.7-.6-2.6-.4v.8c-.2 3.3 1.2 6.4 3.7 8.5 2.7 2.3.6 5.6 3 8.7s1.6 5.4 4.2 7.6 2.9 3.5 1.8 6.4 2.3 2.1 2.4 3.9-.7 5.4.1 7.1 2.6 0 6.6-.1 3-2.6 3.1-5 2.1-1.2 2.6-2.7 4.1-1.9 7-.6 4.4-.9 4.9-3.9 2.1.6 3 1.2 3.5-4.6 4.7-8-.1-2.7-3 .5-1.2-3.2-.1-5.9 1-10.2 1.4-12 1.1-4.4 4.7-5.1 8.4-5.2 7.6-7.1 5-5 5-6.9-6-7.6-8-8.9-6.4-.3-6-1.6-.5-6.7-1-9.5 3.1-5.6 3.1-8.2-.1-5.6 2.3-6.5.9-3.1 4-3.9 2.5-5.2 5.9-6.6 3.6-2.5 8-4.6 11.7-7.1 13-9.7-4.5-5.4-.9-8.1.6-5.9 3.2-6.9 3.6-2.4 5.5-4.4 4.4-.1 8.8-.9c1.5-.2 3.1-.2 4.6.2-.4-1.6-.9-3.2-1.4-3.8zm-42.1 109.7c-4.7.1-7 9.4-5.7 11 .9 1.2 10.4-11.1 5.7-11zm73.9-15.9c1-2.2 3.7-2.6 1.7-5.5-.5.4-1.2.7-1.8.9-3.6 1-11.5-2.5-16-1.6s-13.6.9-15.7 3.1-7.5 2.9-5.1 4.9 0 3 1.8 5.4 2.6 3.4 5 2.9 4.2.7 1.7 3.4c0 .1-.1.1-.1.1 4-.4 8.4-.6 9.1-.1 1 .8 7 5.5 8.5 5 .9-.3 5 .1 8 .5-.4-.8-.3-1.7.3-2.3 1.1-.9 3.6-.9 2.3-2.8s-1.7-2.2-1.9-4.5-.8-3.4-.6-4.9 1.7-2.1 2.8-4.5zm-44.1 6c-4.5 1.3-5.1 7.4-3.4 7.4 2.2-.1 7.4-4.4 8.7-5.7s-.9-2.9-5.3-1.7zm3.7-3.6c1-1.9-7.2-1-5.4.6 1.4 1.3 4.4 1.3 5.4-.6z"/><path class="st1" d="M349.4 21.5c-.5 1.9-3.9 1.5-3.7-.4s-5.2-3.4-5.5-4.2 2.3-.8 4.2.4 3.4.4 5.6-1.7 5.4-.4 5.7-2.2-3.6-3.1-4.4-4.2-3.6-2.6-6.4-2.1-2.9-.6-4.5-2.1-6.6 1-6.6 4.5-3.1 2.6-2 .8-1.5-4.1 1-4.7 1.1-4.4-3.5-4.7-6.4 3.5-5.2 4.7-3.1 6.6-5 6.6.3-4.6.1-7.1-1.9-1.1-5.4 2.8-6.1 7.6-8.1 8-1.8-3.6 1.5-5.4 3.4-6.5 5.5-6.5 2.1-2.5-1-3.2-3.6 2.7-4.6 3.7-6.1-1.8-6-.8-2.7 1.4-1.5 3.2-.6 3.5-1.9 1.3-4.4-.5-5.9 2-3.5 2.4-2 3.3 1.4 4.2-.9 4.9-1.4-6.1-3.1-5.5-.6-3.2 1.7-3.2 4.7-3.5 4.5-4.4c-.4-1.5-3-1.1-3 .8s-3.7 1.5-6.9 1.4-3 3.6.5 5.6-.6 3.3-2.4 1.8-4.5-.8-6.4.1 4.5 3.1 4.8 4.2-3.3-1.4-4-.5-4.2-.6-4.5-2.7-5.9.9-2.7 1.6 2 2.8 2 5.5-3.6.6-2.9-1.8-2.3-1.9-4.7-.4.4-2.7-.6-4.9-3.3 0-5.9.5-4 .6-2.4 2.4 1.4 4.2-.8 3.9-3 0-2.7 2-2.7 2.1-3 .4-4.5-1.3-5.7.8-4.7 3.5-4.4 5.7 3.1-1.1 5.4-.4c2.3.7-.1 1.9 1.1 3s1 3.9-.8 2.3-4-2.1-4.4.5-2.2-.4-3.7-2.3-3 3.5-4.6 2.3 3.2-5.1 2-7-2.1 1.1-5 4-6.7 2.8-5.4 4.2-2.9 2.1-3.6 4.5-6.6 3.3-10.4 5.7.8 2.6 2.9.2 2.9-1 6.2-3.1 7-3.9 8.2-3c1.4 1.2 3.5 1.1 4.7-.3.1-.1.2-.3.3-.4 1.6-2.3 3.6-1.8 5.2-.4s-2.7 2.5-.8 4.5-2.4 3.1-2.4 1.4-2.5-3.2-3.4-1.6-2.4 3.4-4 3.5-3.4 3.1-3.4 6.1-2.9 0-3.1 2.6-4.2 7.2-7.7 10.6-.3 4.1-1.4 6.2-5.2.3-6.6 1.1c-1.4.9.7 6.1-1.1 7.7s0 3.9 0 5.7-4.9-1.1-5.2.8-4.6 1.4-5.9 1.9 2.5 3.5 4.7 5.2-2.1 3.1-2.6 1.1-3.6 1.3-7.5 3-2.3 5.2-5.2 5.4-2.1 4.9-4.1 6.4-1.5-3.5-4.6-3.6-2.9 2.1-1 4.7-2.9.6-4.6 2.9-6.7 1.1-8.1 3 3.7 1.9 4.5 3.4-4.5.8-7.2.1-2 3.5-4.5 3-5.6 2.1-3.9 3.9-1.4 2-3.1.9-3.2 1.6-3.9 3.7 3.4 3.3 3.2 4.2-3.2 2.6-1 3.1.6 2.5-.9 3.1-1.5 2.1 0 4-2.6 2.2-.6 5.1 3.5-.8 4.4 1.4 3.2.3 6-2.2 3.7 2.7 1.5 2.6-4.9 1.2-4.4 3.5-3.5 1.9-3.4-.9-4.6.5-2.9 2.5-.6 3.1-.6 5 3.4 1.5 4.7-.6 3.6-1.6 4.5.5-2.1.5-2.1 3.4-1.9.4-3.5 2.6 6.4 6.4 8.9 7 4.9 3.4 9.9 2.6 14.5-10 15.7-11.6 4 .3 5.9-1.3.8-5.4 2.1-6.1 2.1 4.1 3.4 4.6 1.9 1.3 2 3.8c.9-.2 1.8-.1 2.6.4 1.6 1.2 2-4 2-5.6s1.6-4.9 1.1-6.9 4.8-.4 5.6-2 1.2-7.2-.4-8-2-4-.4-4 3.6-1.2 3.2-4.4-5.2-2.8-5.6-6 2.4-4 .4-8 .8-6.4 0-8.4-1.6-4.4.8-8.4 6.8-6 8.4-5.6 4.4 2 5.6-.4 1.2-4.4 0-4.8-4.4-1.2-2-4.4 5.2-7.2 5.6-10.8-.8-6.4.4-7.6 4 0 6.4-1.6.4-3.6 1.6-4.8 2.8-5.2 4.4-6.4c1.6-1.2 3.2-2.8 2-4.4s2.4-3.2 2.4-6 4-4.8 6.4-4.8 6.4 0 6.4-2.4-1.6-7.6 2-6 6.4-.4 8.8 1.6 5.6 1.6 5.6-1.6 1.2-8.4 4.8-6.4c.3.2.5.3.8.5 1.2-2.7 3.5-4.4 5.6-4.1 3.2.4 5.2 6 9.2 6.8s8 2.4 9.2.4 4 1.2 6.4.4 2.4 4.4 4.8 1.2-.4-5.2 3.6-4.8 1.6-4.4 1.6-7.2 5.2-3.2 5.2-5.6 7.2-.4 8.4-2 5.2-2.8 6.8 0 8.4 3.6 8.8 6c.1 1.6.1 3.1 0 4.7 1-1.1 2.4-1.8 3.9-1.9 2.5 0 4.7-3.7 7-3.2 1.9.4 3.7.1 4.3-3-1.1-1.9-4.9-2-5.4-.4zM219.8 400.1c-5.1 1.1-7.2 1.5-10.2 0s-7.8 1.4-7.1 3.4c.5 1.4 2.5 3.1 8.7 4.8 6.2 1.6 7 5.9 9.6 6s2.9-2.4 2.3-5.7 3.1-7.2 3.5-7.9-1.7-1.7-6.8-.6zm-48.3-28.2c-2.7 2.4-5-.4-6.1 1.5-1.4 2.4 4.2 6 3.1 10.8s.6 11 3.5 8.1 4.2-1.5 5.9-3.6.3-10 1.4-13.7-5-5.5-7.8-3.1zm61.1-4c-3.2-2-1.1-5.2-6.2-5s-11.2-6.1-13.1-13.5-9.8-7.7-11.8-12.1 1.9-4.9.1-8.5c-1-2 1.2-3.8 3.7-4.8-.1-3.7 0-7.5.4-11.2-1.5-.1-2.9-.4-4.3-.9-.9-.6-1.1-3.6-1.7-3.6s-5.8 0-6.7.9-3.7 2.6-5.2 1.7c-.3-.2-.7-.4-1-.6l-1.6 1.5s-.3 2-1.3 2-2.5-.7-2.5 1-2.7 1.3-4 1-3 .3-3 1.7-.3 4.7-2.2 3-4-6.2-4.7-5.7-2.5 6-4.2 6c-1.1 0-4.6.3-7.2.5-.7 2.1 0 3.4 1 4s-.6 2.8-1.7 3.4-3 0-1.7 2 3.7 2.2 2.4 4.3c-.9 1.1-.7 2.7.4 3.6.4.3.9.5 1.5.6 1.9.2 4.5-.2 3.9 1.3-.4.9-.7 1.9-.9 2.9 1.4-.3 2.8-.6 4.1-1.2 2.6-1.4 1.5-3.7 5.9-5s10.1 2.4 11.9 5 2.2 2.9 2.6 5 2 6.4 8 10.2 8.4 8.2 11.5 9.9c3.1 1.6 6.2 1.3 8.1 3.5s4.4 3.5 7.4 4.9 3.1 4.6 6 5 1 2.9 2.7 5 2.3 6.6.4 9.1-.9 6.7.4 6.7 3.9-4.5 4.2-7 2.9-2.4 4.9-5-3-3.2-3.9-6.6 3.7-6.4 8.1-3.6 6.1 4.6 6.4.4-13.9-9.8-17.1-11.8zm20.4-20.6c-1.7 2.3-3.4 5.3-3.2 6.3 0 .9-.1 1.8-.4 2.6 1.9 1.6 3.9 3.1 6 4.4l.5.2c.5-2.8 2.4-5.6 3.8-6-2-2.3-4.8-5.6-6.7-7.5z"/><path class="st1" d="M282.6 345.3c-1.9-1.7-1.7-4.7 0-5.8s.2-2.6.2-4.5-8-2.4-9.4-2.8.9-5.2-1.1-5.2c-1.5.1-2.7-1.1-2.8-2.6v-.4c0-1.5-3.2-3.9-3-4.9 0-.1.1-.3.2-.4-1.1-.2-2-.3-2.4-.4-1.2-.3-2.4-.7-3.6-1.1 0 0-5.2 1.7-8.7 2.8.2 2.2.8 4.6 2.2 5.1 2.7 1 1.7 3.7 2.7 6 1 2.3.7 13.1-.7 13.1-.6 0-1.9 1.4-3.1 3.1 1.8 1.8 4.7 5.2 6.6 7.6.1 0 .2-.1.3-.1 1.7 0 7.8 4.5 7.8 4.5s8.7-1.8 14.5-2.7c.1-.8.2-1.7.2-2.5-.2-1.1 1.1-3.4 2.8-3.4s-.8-3.7-2.7-5.4z"/><text transform="translate(249.12 251.87)" class="st4 st5 st6">POLAND</text><text transform="translate(352.48 284.56)" class="st4 st5 st6">UKRAINE</text><text transform="rotate(54.396 -126.129 464.778)" class="st7 st5 st8">MOLD</text><text transform="rotate(54.396 -131.443 475.121)" class="st7 st5 st8">O</text><text transform="rotate(54.396 -132.724 477.611)" class="st7 st5 st8">V</text><text transform="rotate(54.396 -133.905 479.91)" class="st7 st5 st8">A</text><text transform="translate(214.92 277.09)" class="st7 st5 st9">CZ</text><text transform="translate(221.07 277.09)" class="st7 st5 st9">E</text><text transform="translate(223.99 277.09)" class="st7 st5 st9">CH</text><text transform="translate(211.2 283.09)" class="st7 st5 st9">REPUBLIC</text><text transform="translate(71 245.43)" class="st7 st5 st6">UNITED</text><text transform="translate(71 252.63)" class="st7 st5 st6">KINGDOM</text><text transform="translate(209.86 303.96)" class="st7 st5 st9">A</text><text transform="translate(213.05 303.96)" class="st7 st5 st9">U</text><text transform="translate(216.51 303.96)" class="st7 st5 st9">S</text><text transform="translate(219.49 303.96)" class="st7 st5 st9">TRI</text><text transform="translate(226.73 303.96)" class="st7 st5 st9">A</text><text transform="translate(98.08 314.81)" class="st7 st5 st10">FRANCE</text><text transform="translate(281.45 324.69)" class="st7 st5 st10">ROMANI</text><text transform="translate(315.54 324.69)" class="st7 st5 st10">A</text><text transform="translate(290.31 355.62)" class="st7 st5 st9">BU</text><text transform="translate(297.03 355.62)" class="st7 st5 st9">L</text><text transform="translate(299.72 355.62)" class="st7 st5 st9">G</text><text transform="translate(302.97 355.62)" class="st7 st5 st9">ARI</text><text transform="translate(310.68 355.62)" class="st7 st5 st9">A</text><text transform="translate(268.71 388.48)" class="st7 st5 st11">GRE</text><text transform="translate(276.29 388.48)" class="st7 st5 st11">E</text><text transform="translate(278.63 388.48)" class="st7 st5 st11">CE</text><text transform="translate(49.04 382.98)" class="st7 st5 st10">S</text><text transform="translate(54.67 382.98)" class="st7 st5 st10">P</text><text transform="translate(60.16 382.98)" class="st7 st5 st10">AIN</text><text transform="rotate(-77.508 261.324 182.026)" class="st7 st5 st6">PO</text><text transform="rotate(-77.508 257.454 177.206)" class="st7 st5 st6">R</text><text transform="rotate(-77.508 255.559 174.845)" class="st7 st5 st6">TU</text><text transform="rotate(-77.508 251.818 170.185)" class="st7 st5 st6">G</text><text transform="rotate(-77.508 249.863 167.75)" class="st7 st5 st6">A</text><text transform="rotate(-77.508 247.913 165.32)" class="st7 st5 st6">L</text><text transform="translate(175.01 258.49)" class="st4 st5 st6">GERMAN</text><text transform="translate(199.29 258.49)" class="st4 st5 st6">Y</text><text transform="translate(209.11 162.15)" class="st7 st5 st10">S</text><text transform="translate(214.62 162.15)" class="st7 st5 st10">WEDEN</text><text transform="translate(154.87 145.49)" class="st7 st5 st10">NO</text><text transform="translate(167.38 145.49)" class="st7 st5 st10">R</text><text transform="translate(173.23 145.49)" class="st7 st5 st10">W</text><text transform="translate(180.32 145.49)" class="st7 st5 st10">A</text><text transform="translate(185.73 145.49)" class="st7 st5 st10">Y</text><text transform="translate(294.73 125.73)" class="st7 st5 st10">FINLAND</text><text transform="translate(173.44 331.23)" class="st7 st5 st10">I</text><text transform="translate(175.77 331.23)" class="st7 st5 st10">T</text><text transform="translate(180.25 331.23)" class="st7 st5 st10">A</text><text transform="translate(186.3 331.23)" class="st7 st5 st10">L</text><text transform="translate(190.38 331.23)" class="st7 st5 st10">Y</text><text transform="translate(257.6 349.65)" class="st7 st5 st12">SERBI</text><text transform="translate(276.79 349.65)" class="st7 st5 st12">A</text><text transform="translate(239.19 310.48)" class="st7 st5 st12">HUN</text><text transform="translate(253.71 310.48)" class="st7 st5 st12">G</text><text transform="translate(258.27 310.48)" class="st7 st5 st12">A</text><text transform="translate(262.82 310.48)" class="st7 st5 st12">R</text><text transform="translate(267.14 310.48)" class="st7 st5 st12">Y</text><text transform="translate(251.36 289.16)" class="st7 st5 st9">S</text><text transform="translate(254.39 289.16)" class="st7 st5 st9">L</text><text transform="translate(257.07 289.16)" class="st7 st5 st9">O</text><text transform="translate(260.28 289.16)" class="st7 st5 st9">V</text><text transform="translate(263.24 289.16)" class="st7 st5 st9">AKI</text><text transform="translate(270.62 289.16)" class="st7 st5 st9">A</text><text transform="rotate(-36.489 459.266 -72.666)" class="st7 st5" font-size="4.001">NETHERLANDS</text><text transform="rotate(14.327 -1003.356 630.846)" class="st7 st5 st9">BE</text><text transform="rotate(14.327 -1006.468 655.586)" class="st7 st5 st9">L</text><text transform="rotate(14.327 -1007.814 666.286)" class="st7 st5 st9">GIUM</text><text transform="translate(282.72 214.67)" class="st7 st5 st9">LITH</text><text transform="translate(293 214.67)" class="st7 st5 st9">U</text><text transform="translate(296.39 214.67)" class="st7 st5 st9">ANI</text><text transform="translate(304.32 214.67)" class="st7 st5 st9">A</text><text transform="translate(300.73 197.89)" class="st4 st5 st6">L</text><text transform="translate(304.02 197.89)" class="st4 st5 st6">A</text><text transform="translate(307.47 197.89)" class="st4 st5 st6">TVI</text><text transform="translate(316.14 197.89)" class="st4 st5 st6">A</text><text transform="translate(298.88 174.09)" class="st7 st5 st9">E</text><text transform="translate(301.84 174.09)" class="st7 st5 st9">S</text><text transform="translate(304.83 174.09)" class="st7 st5 st9">T</text><text transform="translate(307.52 174.09)" class="st7 st5 st9">ONI</text><text transform="translate(315.51 174.09)" class="st7 st5 st9">A</text><text transform="translate(20.08 241.61)" class="st7 st5 st9">IRELAND</text><text transform="translate(268.46 365.9)" class="st7 st5 st14">M</text><text transform="translate(270.8 365.9)" class="st7 st5 st14">A</text><text transform="translate(272.71 365.9)" class="st7 st5 st14">CEDONI</text><text transform="translate(283.26 365.9)" class="st7 st5 st14">A</text><text transform="translate(257.24 374.24)" class="st7 st5 st14">AL</text><text transform="translate(260.83 374.24)" class="st7 st5 st14">B</text><text transform="translate(262.77 374.24)" class="st7 st5 st14">ANI</text><text transform="translate(267.53 374.24)" class="st7 st5 st14">A</text><text transform="translate(234.69 334.86)" class="st7 st5 st14">BOSNI</text><text transform="translate(243.25 334.86)" class="st7 st5 st14">A</text><text transform="translate(245.82 334.86)" class="st7 st5 st14">AND</text><text transform="translate(234.69 338.46)" class="st7 st5 st14">HERZ</text><text transform="translate(242.22 338.46)" class="st7 st5 st14">E</text><text transform="translate(243.98 338.46)" class="st7 st5 st14">G</text><text transform="translate(245.97 338.46)" class="st7 st5 st14">O</text><text transform="translate(247.9 338.46)" class="st7 st5 st14">VIN</text><text transform="translate(252.62 338.46)" class="st7 st5 st14">A</text><text transform="translate(228.11 325.87)" class="st7 st5 st11">CR</text><text transform="translate(233.27 325.87)" class="st7 st5 st11">O</text><text transform="translate(235.87 325.87)" class="st7 st5 st11">A</text><text transform="translate(238.17 325.87)" class="st7 st5 st11">TI</text><text transform="translate(241.41 325.87)" class="st7 st5 st11">A</text><text transform="translate(207.17 319.49)" class="st7 st5 st11">S</text><text transform="translate(209.59 319.49)" class="st7 st5 st11">L</text><text transform="translate(211.74 319.49)" class="st7 st5 st11">O</text><text transform="translate(214.31 319.49)" class="st7 st5 st11">VENI</text><text transform="translate(222.97 319.49)" class="st7 st5 st11">A</text><text transform="translate(156.44 312.28)" class="st7 st5 st14">S</text><text transform="translate(158.22 312.28)" class="st7 st5 st14">WITZERLAND</text><text transform="translate(167.76 205.06)" class="st7 st5 st14">DENMAR</text><text transform="translate(179.83 205.06)" class="st7 st5 st14">K</text><path class="st1" d="M65.1 132.1c4.1-.2 4-4.8 5.7-4.6 1.7.2 4.5-3.2 5.5-5.3 1.1-2.1-1.2-5.9-3.7-5.9s-4.5-2-3.9-3.5-1.4-3.4-1.3-4.5-3.2-.1-4.9.3c-1.7.4-5.3-4.1-6.9-3.3s-.4 3.1-.8 4.4-4.3-1.2-4.3.3-1.6 1.7-2.9.1-4.3-.6-4.1.6-1.3.2-3.7-1.3-5 1.7-4.8 3.3-.8 2-2.9-1.5-4.3.3-3.3 2.2.6 4.2-1 3.3-3.7.6-4.7 2.1-4.3-4.4-1.9-5.7-7.7-7.3-10.9-7.3-1.1 2.3 1.1 4-1.5 1.3-2.7-.2-3.4-.3-4.7 1.8-3.4 3.3-3.6 4.8 3.6 3.1 6.9 1.7 7-1.6 8.7 0-3.1 2.2-1.4 3.5.3 2.3-3.7 2-8.9.9-8.2 2.2 10.3-1.2 10.4.2 0 3.7 2.6 2.7.8 1.9 2.1 2.4 1 3.1-2.4 3.3-5.1.9-3.6 2.3c1.8 1.8 5.5.5 9.1-.3s8.8 3.5 13.1 5.2 11.6-.6 12.4-2.9 6.6-1.4 8.9-3c2.9-1.9 6.3-3.2 9.8-3.4z"/><text transform="translate(26.22 127.74)" class="st7 st5" font-size="8">ICELAND</text><path class="st1" d="M185.3 309.9c0-1.5-1.1-2.7-2.5-2.9-2.6-.5-2.5-1.4-2.7-2.2-.2-.5-.5-1.1-.9-1.5 0 0-1.4.1-1.1 2.6.1.8.2 1.3.2 1.7 0 .6.3 1.1.7 1.5.7.7 1.6 1.2 2.6 1.1 1.2-.4 2.5-.5 3.7-.3zm-88 45.4s-.8 3 3.9 2.9c0 0 3.1-1.6 5.9-.6s1.8-1.5 1.8-1.5-2.8-.5-3.9-1.6-1.9-1.8-3-1.7c-.4 0-.8.3-.8.8 0 .1 0 .3.1.4.1 0 .2 1.3-4 1.3zm62.3-11.4c-1.5-.2-3 .1-4.3.7-1 .5-3.3 0-3.6 2-1.1 6.1 3.1 1.1 3.1 1.1l3.9-3.3.9-.5zm203.8-111.7c-1.5-.4-2.4-3.7-4.9-4.7s-1.9-3.9-3.9-5.2-.8-3.9-.9-6 .4-5.2-.7-5.8-5.8-3.2-7.9-2.2-3.6 1.7-4.5 0-2.2-2.6-4.3-2.1c-1.6.4-3.3-.1-4.5-1.3-.2-.2-.3-.4-.4-.6-.9.2-1.8.5-2.6 1.1-1.3 1-1.5 3-3.3 3s-3.7-.7-5.7.8-2.5 3.3-2.3 4.5.5 3.3-1 3.3-1.2 1.8-2.7 2.3-4 2.7-4.2 4-.3 4-1.3 4-4.5.5-5.5 1.8-2.2 2.5-4.2 2c-2-.3-4.1-.4-6.2-.4 0 .3 0 .5-.1.8-.9 2.2-.4 4.7 1.3 6.4 1.5 1.3 2.1 6.5.4 7.3s-4.9 3-4.9 4.3 3.4 2.4 2.8 4.3c-.3 1.5-.4 3.1-.1 4.6 1.6.1 3.2.4 4.5-1s2.3-3.2 5.5-3.2 13 0 14.5 1.7 5.5.3 7.7 1.3 5.5 2 5.7.8 3.3 1.8 5.5.5 4.2 2.5 5.5 1.8 6.5-.8 7.7.5 1.5-1.3 1.5-2.8 5-5.5 5-5.5c1.9-.1 3.7-.5 5.4-1.1-.6-1.1-1-2.3-1.3-3.5-.9-4.1-2.4-6.5-1.3-7.9s4.3 1.7 6 .9 4.7-2.3 4.3-3.9-3.1-4.5-4.6-4.8z"/><text transform="translate(321.95 234.24)" class="st4 st5 st6">BELARUS</text><path d="M361.9 255.5c-2.8.5-4.9 2.8-5.4 5.5s.6 5.1 2.5 6.6c1.9 1.6 3.2 3.6 3.9 6l.4 1.5.5-1.5c.7-2.5 2.3-4.5 4.1-6.2 1.4-1.2 2.3-3 2.3-5.1-.1-4.2-3.9-7.6-8.3-6.8zm1.3 10.7c-2.2 0-3.9-1.8-3.9-3.9s1.8-3.9 3.9-3.9c2.2 0 3.9 1.8 3.9 3.9s-1.7 3.9-3.9 3.9z" fill="#404040" stroke="#fff" stroke-miterlimit="10"/><path class="st4" d="M333.9 213.4c-1.8.3-3.2 1.8-3.5 3.6-.3 1.7.4 3.3 1.6 4.3s2.1 2.4 2.5 3.9l.3 1 .3-1c.4-1.6 1.5-2.9 2.7-4 .9-.8 1.5-2 1.5-3.3 0-2.9-2.5-5-5.4-4.5zm.9 6.9c-1.4 0-2.5-1.1-2.5-2.5s1.1-2.5 2.5-2.5 2.5 1.1 2.5 2.5c.1 1.4-1.1 2.5-2.5 2.5zm-75.9 10.1c-1.8.3-3.2 1.8-3.5 3.6-.3 1.7.4 3.3 1.6 4.3s2.1 2.4 2.5 3.9l.3 1 .3-1c.4-1.6 1.5-2.9 2.7-4 .9-.8 1.5-2 1.5-3.3 0-2.9-2.5-5-5.4-4.5zm.9 6.9c-1.4 0-2.5-1.1-2.5-2.5s1.1-2.5 2.5-2.5 2.5 1.1 2.5 2.5c.1 1.4-1.1 2.5-2.5 2.5zm-70.9-3.9c-1.8.3-3.2 1.8-3.5 3.6-.3 1.7.4 3.3 1.6 4.3 1.2 1 2.1 2.4 2.5 3.9l.3 1 .3-1c.4-1.6 1.5-2.9 2.7-4 .9-.8 1.5-2 1.5-3.3 0-2.9-2.5-5-5.4-4.5zm.9 6.9c-1.4 0-2.5-1.1-2.5-2.5s1.1-2.5 2.5-2.5 2.5 1.1 2.5 2.5c.1 1.4-1.1 2.5-2.5 2.5zm119.1-63.9c-1.8.3-3.2 1.8-3.5 3.6-.3 1.7.4 3.3 1.6 4.3s2.1 2.4 2.5 3.9l.3 1 .3-1c.4-1.6 1.5-2.9 2.7-4 .9-.8 1.5-2 1.5-3.3 0-2.9-2.5-5-5.4-4.5zm.9 6.9c-1.4 0-2.5-1.1-2.5-2.5s1.1-2.5 2.5-2.5 2.5 1.1 2.5 2.5c.1 1.4-1.1 2.5-2.5 2.5z"/><path fill="none" d="M363.8 273.6l-102.9-29.4"/><path d="M366 315.9s2.5 1.1 0 2.1-3.3 1.2-5 2.9-2.7 2.4-1.8 3.2c.8.8 2.3-1.1 3.8 0s2.3 2.1 2.3 2.1 1-2.3 1.9-.9 1.2 1.9.9 3.1-2.8-1-2 2.2 2.1 3.6 2.1 3.6 1.6 1.1 3.1 0 2.5-2.1 3.5-3.6-1.3-2 2.3-2.5 3.3-1.4 5.5-1.2c2.3.2 2 0 3.3-.8s-.8-1.1 1.3-.8 3.3 2.5 3.8-.1.5-2.4 1-4.4-2.5-2.9-3.3-2.9-2.5 2.7-3.5 2.5-3.5 2.8-4.5 0-2.1-3.3-2.3-4.5l-.2-1.3-12.2 1.3z" fill="#d3ad89"/></svg>