<?xml version="1.0" encoding="utf-8"?>
<!-- Generator: Adobe Illustrator 19.2.1, SVG Export Plug-In . SVG Version: 6.00 Build 0)  -->
<svg version="1.1" id="OBJECTS" xmlns="http://www.w3.org/2000/svg" xmlns:xlink="http://www.w3.org/1999/xlink" x="0px" y="0px"
	 viewBox="0 0 431.4 430.9" style="enable-background:new 0 0 431.4 430.9;" xml:space="preserve">
<style type="text/css">
	.st0{fill:#F2F2F2;stroke:#FFFFFF;stroke-width:0.5;stroke-miterlimit:10;}
	.st1{fill:#F2F2F2;stroke:#FFFFFF;stroke-miterlimit:10;}
	.st2{fill:#D3AD89;stroke:#FFFFFF;stroke-miterlimit:10;}
	.st3{fill:#F2F2F2;stroke:#FFFFFF;stroke-width:0.89;stroke-miterlimit:10;}
	.st4{fill:#404040;}
	.st5{font-family:'Rubik-Regular';}
	.st6{font-size:6px;}
	.st7{fill:#FFFFFF;}
	.st8{font-size:3.9858px;}
	.st9{font-size:5px;}
	.st10{font-size:9.3px;}
	.st11{font-size:4px;}
	.st12{font-size:7px;}
	.st13{font-size:4.0008px;}
	.st14{font-size:3px;}
	.st15{font-size:8px;}
	.st16{fill:#404040;stroke:#FFFFFF;stroke-miterlimit:10;}
	.st17{fill:none;}
	.st18{fill:#D3AD89;}
</style>
<title>114095-OOWM0B-541</title>
<path class="st0" d="M64.4,278.1c0.8-0.7,2,0.7,3.1,0.8c0.8,0,1.6-0.2,2.2-0.6c-0.6-0.2-1.3-0.3-2-0.3c-1.8-0.1-1.9-2.2-3.5-1.5
	c-1.4,0.7-3,1-4.6,0.8c0,0.6-0.4,1.4-0.5,2.2c0.3-0.1,0.7-0.2,1.1-0.2C61.3,279.1,63.6,278.7,64.4,278.1z"/>
<path class="st0" d="M65.2,286.5c0.8-0.6,2.4-2,3-1.8c0.5,0.2,1.1-0.1,1.3-0.6c0-0.3-1.1-1.4-0.2-1.7c0.5-0.3,0.8-0.8,0.8-1.4
	c-0.3-0.2-0.6-0.2-0.9-0.2c-0.7,0.1-5.3,0.4-5.3,0.4c-0.6,0.4-1.3,0.7-2,0.8c-0.6-0.1,0-1-1.8-0.5c0.9,1.1,1,1.7,2.9,2.2
	c2.1,0.6-0.2,1.7,1.6,2.7c0.1,0.1,0.3,0.2,0.4,0.3C65,286.7,65.1,286.6,65.2,286.5z"/>
<path class="st1" d="M216.8,233.3c0.6,1.5,1.1,6.7-0.2,8.8s-0.7,2.6,0.6,3.4s1.9,2.6,1.9,4.1s0.9,1.3,1.1,4.5
	c0.2,3.2,0.9,5.4,2.1,6.7c0.8,1.1,0.8,2.6,0.3,3.8c1.5,1.2,3.1,2.1,4.9,2.8c3.9,1.4,5.3,2.5,5.6,3.9s3.6,3.9,4.5,2s3.1-0.8,4.7-0.8
	s2,2,2.2,3.1s4.2,0.6,5.6,1.4s1.9,3.9,3.9,5c2,1.1,3.6-1.4,5-0.6s5,1.7,7.2,0.8s3.6,0.8,6.4,0.6s6.4,0.8,7.2,1.7
	c0.4,0.4,2.8,0.9,4.9,1.2c0.6-1.1-0.5-4.7-0.4-5.5s6.7-6.7,7.9-8s2.8-1.3,3.7-3s-2.6-7.1-3.4-8.2s-1.1-5.6-0.6-7.5s-2.8-3-2.8-4.3
	s3.2-3.6,4.9-4.3s1.1-6-0.4-7.3c-1.7-1.6-2.2-4.2-1.3-6.4c0.9-2.6-5.6-4.7-6.5-4.7c-0.2,0-0.3-0.2-0.3-0.4
	c-5.8,1.1-20.8-0.5-21.9-0.9c-0.7-0.3-2.6-1-4.3-1.6c-1,1.6-2.8,2.5-4.6,2.4c-3.6,0-3.9-3.6-4-5.2s-14.6,1.4-18.5,5.2
	s-12.8,2.4-13.1,4.5c-0.2,1.5-1.5,2.3-2.4,1.9C216.6,232.6,216.7,233,216.8,233.3z"/>
<path class="st1" d="M249.8,353.6c-0.3-1.7,5-9.4,6.4-9.4c1.1,0,1.5-7.4,1.1-11.3c-2.3-1.7-4.9-3-7.6-3.9c0,0-11.2-0.5-13-1.3
	s-3.7,2.4-5.4,1.1c-1.1-0.8-2.5-0.5-3.3,0.6c-0.3,0.5-0.5,1.1-0.4,1.7c0.4,1.9,3.9,3,3.9,5.8s7.1,6.9,6.9,8.4
	c-0.1,1,4.3,3.9,6.9,7.7c1.5,1,2.9,2.1,4.3,3.2C249.7,355.4,249.8,354.5,249.8,353.6z"/>
<path class="st1" d="M238.3,345.3c0.2-1.5-6.9-5.6-6.9-8.4s-3.5-3.9-3.9-5.8c-0.2-1.3,0.7-2.5,2-2.7c0.6-0.1,1.2,0.1,1.7,0.4
	c1.7,1.3,3.5-1.9,5.4-1.1s13,1.3,13,1.3c2.7,0.9,5.3,2.2,7.6,3.9c0-0.6-0.2-1.2-0.4-1.8c-1-2.4,0-5-2.7-6c-1.4-0.5-2-2.9-2.2-5.1
	c-1.3,0.4-2.3,0.7-2.9,0.9c-2.2,0.6-7,0.3-8.6-2c-1.2-1.7-5.1-4.1-7-5.2c-0.8,0.7-3.8,3.2-5,3.4c-1.5,0.2-0.6,4.1-2.1,4.1
	s-2.6,2.6-3,3.7s-3.7-0.8-5.2-0.2c-2,0.5-3.9,0.9-5.9,1.1c0.3,1.7,0.2,3.6,1.5,3.6c2.3,0,6.4-0.2,6.5,2.8s5.5,9.6,7.5,11.9
	s6.5,1.8,6.7,3.6s3.5,3.6,7.2,3.9c1.3,0.2,2.5,0.7,3.5,1.5C242.5,349.2,238.2,346.4,238.3,345.3z"/>
<path class="st1" d="M266,381.2c1.9-0.4,0.8-1.9,2.1-3.2c1.3-1.4,2.3-3.1,3-4.9c0-0.1,0.1-0.2,0.2-0.2c-2.5-1.9-4.3-3.3-4.9-5.2
	s0-5.9,0.9-8.8c-1.5-1-5.9-4.1-7.3-4.1s-3.5,3.1-4,6c3.3,1.7,4.6,3,2.3,5.3c-2.3,2.3-2.9,10.4-0.3,12.5s3.2,6,5.6,7.2
	C264.2,383.7,264.7,381.5,266,381.2z"/>
<path class="st1" d="M230.4,289.1c-2.2-2.5-7.8-2.5-7.8-2.5c-0.3,1.4-0.8,2.7-1.4,3.9c-0.7,1.2-4.8,1.1-7.3,0.5
	c-0.7,1-4.1,1.7-4.6,3.1c-0.6,1.7-4.7,0.8-3.4,5.2c1.3,4.5-2.1,3-3.4,2.4s-7.1,0.2-8.6,1.7c-1.3,1.2-3.3,1.4-4.9,0.4
	c-1.3-0.7-3.9-1.1-5,0.7s-3.2-1.5-4.9-1.3s-0.9,3.7-0.9,4.5s2.6,3,4.3,2.3s3.7,0.2,5.2,1.1s4.3-0.8,5.2-1.7s6.2-0.9,6.7-0.9
	s0.8,3,1.7,3.6s4.5,0.9,7.7,1.1s7.9,1.7,9.4,1.7s3.9-2.6,7.3-2.6s5.2-2,5.8-1.9l0,0c0.2-1,0.6-1.9,1.4-2c1.4-0.2,0.4-2.5,1.4-3.7
	s-0.8-3.5,1-3.3s3.7,0.4,3.7-2.1c0-0.9,0.5-1.7,1.1-2.2c-1.4-2.2-2.5-4.5-3.3-7C236.9,289.9,232.6,291.6,230.4,289.1z"/>
<path class="st1" d="M284.5,296.1c-0.7-0.3-1.4-0.7-2-1.2c-2.4-0.5-4.6-1.2-5.3-1.9c-1.4-1.4-7-2.2-7.8-2.5s-6.1,5-7.8,5
	s-8.9,0.8-8.9,2.8s-8.9,2.2-11.4,0c-0.4-0.4-0.8-0.8-1.1-1.3c-0.7,0.6-1.1,1.4-1.1,2.2c0,2.5-2,2.3-3.7,2.1s0,2.1-1,3.3
	s0,3.5-1.4,3.7c-0.7,0.1-1.1,1-1.4,2c0.6,0.3,2,3.1,2,3.1l-0.2,0.2c1.9,1.1,5.8,3.6,7,5.2c1.7,2.2,6.4,2.5,8.6,2s11.7-3.6,11.7-3.6
	c1.2,0.4,2.4,0.8,3.6,1.1c0.3,0.1,1.2,0.2,2.4,0.4c0.7-0.7,2.8-1.3,5-3.5c2.6-2.6,6.5-12,7.7-12.7s4.1-2.4,5.6-3.5
	S286.2,296.7,284.5,296.1z"/>
<path class="st1" d="M249.9,276.9c-1.4-0.8-5.3-0.3-5.6-1.4s-0.5-3.1-2.2-3.1s-3.9-1.1-4.7,0.8s-4.2-0.6-4.5-2s-1.7-2.5-5.6-3.9
	c-1.7-0.7-3.4-1.7-4.9-2.8c-0.1,0.3-0.3,0.6-0.5,0.9c-0.8,1.1-3.4-0.9-4.5,0.2s-4.9,1.3-6.9,3.2s-6.4,2.8-8.8,3.4s-0.4,2.8,0.6,4.5
	s0.9,5.8,2.8,7.1c1.9,1.3,8,5.2,8.8,6.5c0.1,0.2,0.1,0.5-0.1,0.6c2.6,0.7,6.6,0.7,7.3-0.5c0.6-1.2,1.1-2.5,1.4-3.9
	c0,0,5.6,0,7.8,2.5s6.4,0.8,6.4,0.8s0.2,0.7,0.6,1.7c0.6-1.4,1.4-2.6,2.3-2.7c2.4-0.3,5.7-0.7,8-4c1.3-1.7,3-3,4.9-4
	C251.6,279.5,251,277.5,249.9,276.9z"/>
<path class="st0" d="M272.5,282.7c-2.8,0.3-4.2-1.4-6.4-0.6s-5.9,0-7.2-0.8s-3.1,1.7-5,0.6c-0.4-0.3-0.8-0.6-1.1-1
	c-1.9,1-3.6,2.3-4.9,4c-2.4,3.4-5.7,3.7-8,4c-1,0.1-1.7,1.4-2.3,2.7c0.8,2,2.2,5.2,3.9,6.6c2.5,2.2,11.4,2,11.4,0s7.2-2.8,8.9-2.8
	s7-5.3,7.8-5s6.4,1.1,7.8,2.5c0.7,0.7,3,1.4,5.3,1.9c-0.9-0.7-1.6-1.7-1.8-2.9c0-1.5,2.8-5.4,3.7-6.2c0.1-0.1,0.1-0.2,0.2-0.3
	c-2.1-0.3-4.5-0.8-4.9-1.2C278.9,283.5,275.2,282.4,272.5,282.7z"/>
<path class="st1" d="M36.4,402.3c3.3-0.6-0.9-3.3-1.8-4.2s0.3-4.5,2.1-4.5s0-2.1-2.4-4.5s0-3.3,2.1-3.3s-0.6-3.6,1.5-5.8
	s-0.6-6.1-0.6-7.9s3-2.4,5.5-4.9s-2.1-1.5-2.1-3.3s-3-2.4-5.2-0.9s-1.5,0-3.3,0s-5.2,0.6-5.2-1.2s-1.5-2.1-3-0.3
	c-0.6,0.6-1.4,1-2.2,1c-0.2,2.4-0.5,4.6,0.2,5.7c1.6,2.6-2,16.5-5.2,20.2s-0.1,4.7,3.2,7.4s1.1,12.1,1.1,14.3s3,1.6,6.5,1.6
	c2.1,0,4.4-0.9,6.7-1.3c-0.7-0.8-1.1-1.8-1.3-2.8C33,405.6,33,402.9,36.4,402.3z"/>
<path class="st1" d="M134.3,260.3c1.5-1.5,4.2-0.8,5.7,0.8s3.8,1.9,6.1,4.2c0.6,0.6,1.2,1.1,1.8,1.6c0.2-1.6,0.3-4.8,1-6.5
	s-0.8-4,0.5-4s4.7,0,4.7-2.2s1-1.5,1.8-2.8s-2.2-3.7-2.8-4.5s2.3-1,4.2-4c0.7-1.1,0.4-3.3-0.3-5.7c-0.3,0.9-1,1.5-2.1,0.9
	c-1.9-1.1-4.7-0.5-8.5,0.3s-4.9,4.4-3.5,5.9s-3.6,2.3-4,0.3s-4.1-0.6-3.9,2s-4.1,3.6-3.9,6.9c0.2,3.3-4,6.2-6.7,7.9l-1.3,0.8
	c0.9,0.5,2,0.9,3,1.1C128.6,263,132.8,261.9,134.3,260.3z"/>
<path class="st0" d="M148.5,274.8c-1.7,0.9-3.2,2.9-2.9,7.2c1.9-0.1,3.7,0.2,5.6,0.6c-0.4-4.6-2.2-6-2.7-7
	C148.3,275.3,148.4,275,148.5,274.8z"/>
<path class="st1" d="M118.8,265.5c0.2,1.3,2.2,4.5,3,3.2s2.6,1.7,4.3,2.6s5,2.1,5.2,3.2s0.8,3.5,2.4,2.8s3.7-3.4,3.7-1.9
	s0.6,4.3,2.4,3.9s2.4,3.2,4.3,2.8c0.4-0.1,0.9-0.1,1.4-0.1c-0.2-4.2,1.3-6.2,2.9-7.2c0.4-0.7,1.5-1.5,1.7-2.4
	c0.3-1.2-2.5-3.7-2.3-5.2c0-0.1,0-0.2,0-0.3c-0.6-0.5-1.3-1-1.8-1.6c-2.3-2.3-4.6-2.7-6.1-4.2s-4.2-2.3-5.7-0.8s-5.7,2.7-8,2.7
	c-1-0.2-2.1-0.6-3-1.1c-1.7,1.1-3.6,1.9-5.6,2.4C118.1,264.9,118.7,264.6,118.8,265.5z"/>
<path class="st1" d="M334.7,327c-1.7-0.3-4-1-3.2-2l0.2-0.3c-2.3-1.9-3-8-1.5-9.5c1.9-1.9-3-9.1-5.3-11.8c-1.1-1.3-3.4-5.4-5.6-9.5
	c-2,0.6-3.7,1.4-4.1,1.9c-1.2,1.4-2.9,2.3-4.7,2.5c-1.5,0-3-0.8-4.2,0.5s-3,1.8-3.7,1s-3.2-1.5-5-1.5s-7.2-1.5-8.5-1.5
	c-1.1,0-2.2,0.1-3.3,0.3c0.3,0.5,0.1,1.2-0.8,1.8c-1.5,1.1-4.5,2.8-5.6,3.5s-5,10.1-7.7,12.7s-5,3-5.2,3.9s3,3.4,3,4.9
	c-0.2,1.5,0.9,2.8,2.4,3c0.1,0,0.3,0,0.4,0c2.1,0-0.2,4.9,1.1,5.2s9.4,0.9,9.4,2.8c0,1.5,0.9,2.7,0.5,3.7c2.3,0.4,3.9,3.5,4.8,3.2
	s7.7,1.2,9,1c3-0.2,6-0.1,9,0.3c2.3,0.1,4.5-0.8,6-2.5c1.8-1.8,8-2,10-1.8s6,0.8,6.7,2c0.4,0.6,2.7,1.6,5.1,2.4
	c0.3-1.2-0.1-2.9,0-4.4c0.1-2.6,1.6-6.6,4.2-6.9s4.7-0.3,4.4-4.6c0-0.1,0-0.3,0-0.4c-0.9-0.9-1.9-1.6-3-2.1
	C338.5,325,335.5,327.1,334.7,327z"/>
<path class="st1" d="M338.2,300.5c-0.9-2.6-3.3-4.4-6-4.5c-1.8,0-4.7-4-6.7-3.7c-2.1,0.4-4.1,0.9-6.1,1.6c2.2,4.1,4.5,8.3,5.6,9.5
	c2.3,2.7,7.2,9.9,5.3,11.8c-1.5,1.5-0.9,7.6,1.5,9.5c1.1-1.4,4.8-6,4.8-7.4s0.3-4.5,3.2-3.7s5.7,2,5.7,1s-0.8-4.2-2-5.5
	C341.1,306.6,339.4,303.7,338.2,300.5z"/>
<path class="st1" d="M322,338.9c-2-0.3-8.2,0-10,1.8c-1.5,1.7-3.7,2.6-6,2.5c-3-0.3-6-0.4-9-0.3c-1.2,0.3-8-1.3-9-1
	s-2.5-2.9-4.8-3.2c-0.1,0.3-0.4,0.6-0.7,0.8c-1.7,1.1-1.9,4.1,0,5.8s4.3,5.4,2.6,5.4s-3,2.2-2.8,3.4s-0.6,3.5,0,4.1s4.5,4.3,4.7,5.4
	s1.8,1.5,1.7,2.4c3.1-0.2,9.8-0.6,11.3,0.1c2,1,9,1.5,9,1.5c2,0,3.7-0.8,3.2-2c-0.4-1,2.2-1.8,4-1.9c-0.3-1.1-0.5-2.1-0.1-2.3
	c0.9-0.4,6.4-1.1,8.6,0c1.2,0.4,2.5,0.2,3.4-0.6c-0.3-1-0.6-1.9-1.2-2c-1.4-0.3-3.5-6-1.8-6.4s4-6.4,6.7-7.2
	c0.9-0.2,1.6-0.9,1.8-1.8c-2.4-0.8-4.7-1.8-5.1-2.4C328,339.7,324,339.2,322,338.9z"/>
<path class="st1" d="M271.2,372.9L271.2,372.9c0.1-0.1,0.2-0.1,0.3-0.1h0.1c0.2,0,0.3-0.1,0.5-0.1h0.1c0.7-0.1,1.7,0,2.7,0h0.2h0.7
	h0.3c0.3,0,0.6-0.1,0.8-0.2c2.2-0.6,2.8-3,3.9-2.4s7.1-2.5,7.9-3.6c0.1-0.1,0.1-0.2,0.2-0.4c0.1-0.9-1.5-1.4-1.7-2.4
	s-4.1-4.9-4.7-5.4c-0.1-0.2-0.2-0.4-0.2-0.6c0,0,0,0,0-0.1c0-0.3,0-0.6,0-0.9c-5.9,0.9-14.5,2.7-14.5,2.7l-0.5-0.4
	c-0.9,2.9-1.5,6.8-0.9,8.8S268.7,371,271.2,372.9z"/>
<path class="st2" d="M428.5,286.2c0-0.7,2.6-2,2.4-3.5s-2.4-1.7-4.9-3s-4.9-0.8-7.1-1.9s-6.9-0.4-6.9-1.1s-3-3.2-3.7-4.5
	s-3.2-0.6-4.7,0.4s-2.8,1.3-4.3,0.4s-2.8-2.4-4.1-1.9s-3.7,0.2-3.2-1.7s-2.4-6-3.7-6.5s-5.2,0.4-6.2-1.5s-2.6-3.4-1.9-4.7
	s-0.2-4.9-1.1-6.4s-5.6-1.3-6.9-0.8s-4.3-0.6-5.6,0.2s-2,2-3.9,2c-0.9,0.1-1.8-0.3-2.3-1c-1.7,0.6-3.6,1-5.4,1.1c0,0-5,4-5,5.5
	s-0.2,4-1.5,2.8s-6.5-1.3-7.7-0.5s-3.2-3-5.5-1.8s-5.2-1.7-5.5-0.5s-3.5,0.3-5.7-0.8s-6.2,0.5-7.7-1.3s-11.2-1.7-14.5-1.7
	s-4,1.7-5.5,3.2c-1.5,1.5-2.9,1.1-4.5,1c0.1,1,0.3,2,0.7,2.9c0.8,1.1,4.3,6.5,3.4,8.2s-2.6,1.7-3.7,3s-7.7,7.1-7.9,8s1.1,5,0.2,5.8
	s-3.7,4.7-3.7,6.2s2.1,3.6,3.7,4.1c0.6,0.1,1.1,0.5,1.4,1c1.1-0.2,2.2-0.3,3.3-0.3c1.3,0,6.7,1.5,8.5,1.5s4.3,0.7,5,1.5
	s2.5,0.2,3.7-1s2.8-0.5,4.2-0.5c1.9-0.2,3.6-1.1,4.7-2.5c0.8-1.3,8.2-3.3,10.2-3.5s5,3.7,6.7,3.7c2.7,0.1,5.1,1.9,6,4.5
	c1.2,3.1,3,6,5.2,8.5c1.2,1.3,2,4.5,2,5.5s-2.7-0.3-5.7-1s-3.2,2.3-3.2,3.7s-4.2,6.7-5,7.7s1.5,1.8,3.2,2c0.7,0.1,3.7-2,4.7-2
	c1.1,0.5,2.1,1.2,3,2.1c-0.3-3.9,0.5-3.7,4-6.3s4-7.9,7.2-8.5s4.6-2.1,9.4-1.4s-2.4,3.7,0.9,5.5c2.1,1.1,7.2,0.6,10.5,0.8
	c4.4-0.7,8.8-0.6,13.1,0.2c2.2-2,6.4-4.6,9.2-4.9c3.7-0.4,7.4-1.5,10.7-3.2c2.2-0.9,4.5-1.5,6.9-1.9c-0.4-1.8-0.9-3.8,0.2-4
	c1.3-0.2,5.2-4.5,6.5-4.5s6.9,1.1,6.9,0.2s1.9-4.1,1.5-5s-2.2-2.2-1.9-3.2s3-0.9,3-2.1S428.5,286.9,428.5,286.2z"/>
<path class="st1" d="M290.2,202c2.3,0,7.6,1.1,10.7,0s3,2.3,5,1.9s5.7,2.3,8,4.2c1.3,1,2.7,2,4.2,2.8c0.4-0.7,1-1.3,1.6-1.8
	c2-1.5,4-0.8,5.7-0.8s2-2,3.3-3c0.8-0.5,1.7-0.9,2.6-1.1c-0.7-1.4-0.7-4.1-1.8-5.2c-1.3-1.3-3.2-3.6-2.6-4.9
	c0.7-1.6,0.3-3.5-0.9-4.7c-0.6-0.6-1.1-1.3-1.4-2.1c-3-0.4-7.1-0.8-8-0.5c-1.5,0.5-7.5-4.2-8.5-5c-0.6-0.5-5.1-0.2-9.1,0.1
	c-2.3,2.6-0.6,4.4-0.8,8.3s-4.5,3.2-6.9,3.2s-6.2-7.1-7.5-8.7s-5.3,2-8.1,3.7s-1.4,5.1-3.4,6.7s-3.2,4.4-1.3,8
	c0.1,0.1,0.1,0.3,0.2,0.4c2.5-0.2,5.1-0.7,6.7-1.8C280.7,200.1,287.9,202,290.2,202z"/>
<path class="st1" d="M276,215.7c0.9,1.3,3.9,2.4,5,1.9s4.7,1.3,4.7,2.8s-0.9,6,0,6s6.2,1.7,6.6,3.9c2.1,0,4.1,0.1,6.2,0.4
	c2,0.5,3.2-0.8,4.2-2s4.5-1.8,5.5-1.8s1-2.7,1.3-4s2.8-3.5,4.2-4s1.2-2.3,2.7-2.3s1.2-2,1-3.3c-0.1-0.9,0.1-1.9,0.6-2.7
	c-1.5-0.8-2.9-1.7-4.3-2.8c-2.3-1.9-6.1-4.6-8-4.2s-1.9-3-5-1.9s-8.4,0-10.7,0s-9.5-1.9-12.2,0c-1.5,1.1-4.2,1.6-6.7,1.8
	c1.6,2.9,1.3,6.6-0.8,9.2c-1.4,1.5-0.6,1.7,0.4,2.3C273,215.1,275.3,214.7,276,215.7z"/>
<path class="st0" d="M182.6,309.9c-1.7,0.7-4.3-1.5-4.3-2.3c-0.2-1.2-0.2-2.4,0-3.5c-1.6-0.8-3.2-1.5-4.9-2.1
	c-2.5-0.8-3.7-0.8-5.7,0.3c-1.3,0.6-4.8,0.5-7.2,0.3c0,0.6-0.5,1.1-1.1,1.2c-2,0.2-3.7,1.6-4.3,3.6c-0.4,1.9-4.3,3.4-5.4,6.7
	s-0.6,4.9,1.1,2.8s3.7-1.3,3.7,0.4s2.2,1.9,1.5,4.1v0.1c2.6-0.2,6.1-0.5,7.2-0.5c1.7,0,3.5-5.5,4.2-6s2.8,4,4.7,5.7s2.2-1.5,2.2-3
	s1.7-2,3-1.7s4,0.8,4-1s1.5-1,2.5-1s1.3-2,1.3-2l1.6-1.5C185.5,309.6,184,309.5,182.6,309.9z"/>
<path class="st1" d="M157.4,242.9c-2,3-4.7,3.2-4.2,4s3.5,3.3,2.8,4.5s-1.8,0.5-1.8,2.8s-3.5,2.2-4.7,2.2s0.2,2.3-0.5,4
	s-0.8,5.2-1,6.7s2.5,4,2.3,5.2s-2.3,2.3-1.7,3.2s2.3,2.4,2.7,7c0.7,0.1,1.4,0.5,1.9,1c1.3,1.7,3.3,2.7,5.4,2.6
	c2.4,0,3.4,1.7,4.5,1.5s4.1,0.8,1.7,2.8s-2.8,4.5-3.4,6.9c-0.4,1.6-0.3,3.8-0.7,5.1c2.4,0.2,5.9,0.4,7.2-0.3c2-1,3.2-1,5.7-0.3
	c1.7,0.6,3.3,1.3,4.9,2.1c0.1-0.5,0.4-0.9,0.9-1c1.7-0.2,3.7,3.2,4.9,1.3s3.7-1.5,5-0.7c1.5,1,3.5,0.8,4.9-0.4
	c1.5-1.5,7.3-2.2,8.6-1.7s4.7,2.1,3.4-2.4s2.8-3.5,3.4-5.2s5.4-2.4,4.7-3.7s-6.9-5.2-8.8-6.5s-1.9-5.4-2.8-7.1s-3-3.9-0.6-4.5
	s6.7-1.5,8.8-3.4s5.8-2.1,6.9-3.2s3.7,0.9,4.5-0.2s1.3-3.4,0.2-4.7s-1.9-3.5-2.1-6.7s-1.1-3-1.1-4.5s-0.6-3.4-1.9-4.1
	s-1.9-1.3-0.6-3.4s0.8-7.3,0.2-8.8c-0.1-0.3-0.1-0.7,0-1c-0.4-0.2-0.7-0.6-0.7-1c-0.4-2-1.7-2.7-5-2.7s2-3.2,0.7-4.9s-4.5,3-7.5,2
	s-6.9,3.5-9.5,5.5s-6.4-0.4-4.4-3.2s0-2.6-3-1.5s-6.6-0.3-6.2-3c0.1-0.7-0.1-1.4-0.5-1.9c-1,0.2-2.1,0.2-3.1,0.1
	c-2.5-0.5-5.1-0.8-7.7-0.8c1,1.5,2.1,2.9,1.5,4c-1.1,2.1,0.6,4.1,2.2,7.2s-3.5,1.4-3.6,3.4s-4.7-0.1-6.2-0.9s-6.5-0.3-6.4,1
	c0,0.6,0,1.2-0.3,1.8C157.9,239.6,158.2,241.9,157.4,242.9z"/>
<path class="st1" d="M346.2,134.5c2-4.5,11-8,12.5-12c0.7-2,1-3-2.3-6.7s-10.5-6.2-10.7-8.2s5.5-2.3,5.2-4.7s-3.2-2.5-4.5-4.5
	s1.5-3.3,1.3-4.2s-4-1.5-4.2-2.8s2.5-1,2-2.5s-3-4.2-1.2-6.5s5.5,0,2.7-5s-7-11.2-8-12.7s1-4,2.5-5s5.2-4.7,5.2-6.2s-4.7-5.5-6-6.2
	s-4-0.5-5.2-3s-2.5-3.2-1.3-4.7c1-1.3,1.4-2.9,1.3-4.5c0-1.5,2.7-0.3,3.2-2.5c0.3-1.2,1-2.2,1.9-3.1c0.1-1.6,0.1-3.1,0-4.7
	c-0.4-2.4-7.2-3.2-8.8-6s-5.6-1.6-6.8,0s-8.4-0.4-8.4,2s-5.2,2.8-5.2,5.6s2.4,7.6-1.6,7.2s-1.2,1.6-3.6,4.8s-2.4-2-4.8-1.2
	s-5.2-2.4-6.4-0.4s-5.2,0.4-9.2-0.4s-6-6.4-9.2-6.8c-2.1-0.3-4.4,1.4-5.6,4.1c3.1,2,5.1,4.9,9.2,6.7c4.4,2,12.4,4.4,12,7.2
	s-1.6,6.8,0.4,8s-0.4,6.4,2,7.6s1.6,7.2-0.4,7.2s0.4,3.2,1.6,4.4c0.5,0.6,1,2.2,1.2,4.2c2.3,0.7,4.6,1.7,6.8,2.8
	c3.4,1.5,2.9,3.9,3,6.5s0.2,4.1-1.5,3s-3.6,0-4.6,3.7s-5.7,8.2-8.6,8.5s-2.6,3.2-5,3.9s-4.6,2-4.5,4.6s-3.5,2.9-5.9,2.9
	s-1.9,4.2-3.7,5.4s-1.5,2.6,0.3,4.9s0.3,4.2,0.9,5.9s3.4,5.4,1.5,9.5s-3.9,9.2-2.2,8.7s5.4,3.4,7.9,3.1s2.8,3.5,5.1,2.7
	s2.4,2.2,9.2,2s20.7-6,26.2-6c2.5,0,5.1-0.3,7.6-0.9c1.2-1.8,2.5-3.5,4-5.1C336.7,141.5,344.2,139,346.2,134.5z"/>
<path class="st1" d="M162.9,287.7c-1.1,0.2-2.1-1.5-4.5-1.5c-2.1,0-4.1-0.9-5.4-2.6c-1.1-1.5-6.9-1.9-8.8-1.5s-2.4-3.2-4.3-2.8
	s-2.4-2.4-2.4-3.9s-2.1,1.1-3.7,1.9s-2.3-1.7-2.4-2.8s-3.6-2.3-5.2-3.2s-3.6-3.9-4.3-2.6s-2.8-1.9-3-3.2c-0.1-0.9-0.7-0.6-1.1-1.1
	c-0.6,0.1-1.3,0.2-1.9,0.2c-3-0.1-5.6,2.3-5.1,7.2s-3.6,5.5-8.7,5.9s-3.4,4.4-5.5,6s-9.6-0.9-10.6-3.6s-7.7,0-4.9,3.2s2.7,7.7,1.1,9
	s-5.1-2-7.4-0.4s-2.4-1.5-5.1-2.5s-3.9,1.2-8.2,0.9s-6.9,2.1-5.2,4s-0.3,3.6,1,5.2s7,1.4,11.2,3.6s5.2,0.4,7.4,2
	c2.1,1.6,2.6,0.6,2.7,3.7s2.5,6.1,6.6,7.2s1,3.9,2.3,6.6s-1.9,6.7-1.3,10.1s-2,14.2-4,15.2c-0.2,0.1-0.3,0.1-0.5,0.1
	c1.9,0.9,3.8,1.8,4.8,2.4c1.8,1.2,5.8,2.4,8.2,3.9s6.7,1.2,6.7-0.6s2.4-0.6,3.9,0.9s7.3,1.8,10,2.4c2.3,0.5,5.7,0.2,8.7,0.3
	c-0.1-0.7-0.3-1.5-0.5-2.2c-1.5-4.9,2.9-7.7,7-8.4c4.1-0.7,13.1,1.9,15.5,3.4s5.6,1.1,9.7-3.2c1.4-1.6,3.2-2.8,5.3-3.4
	c0.2-1,0.5-1.9,0.9-2.9c0.6-1.5-2.1-1.1-3.9-1.3c-1.4-0.1-2.5-1.3-2.4-2.7c0-0.5,0.2-1,0.6-1.5c1.3-2.1-1.1-2.3-2.4-4.3
	s0.6-1.5,1.7-2s2.6-2.8,1.7-3.4s-1.7-1.9-0.9-4.1s-1.5-2.4-1.5-4.1s-2.1-2.4-3.7-0.4s-2.3,0.6-1.1-2.8s5.1-4.9,5.4-6.7
	c0.6-2,2.3-3.4,4.3-3.6c1.7,0,1.3-3.9,1.9-6.4s0.9-4.9,3.4-6.9S164,287.5,162.9,287.7z M176.3,351.2c-1.4-0.1-1.8,2.4-5.2,4.5
	s0,11.7,3.5,11.2C178.1,366.4,177.6,351.3,176.3,351.2L176.3,351.2z"/>
<path class="st1" d="M123.9,357.3c-3-0.1-6.4,0.3-8.7-0.3c-2.7-0.6-8.5-0.9-10-2.4s-3.9-2.7-3.9-0.9s-4.3,2.1-6.7,0.6
	s-6.4-2.7-8.2-3.9c-1-0.6-2.9-1.5-4.8-2.4c-2.5,0.5-9.8-2.2-14.6-1.6c-5.1,0.6-21.4-0.8-27.8-0.3s-6.7-2.6-10.2-2.6s-2,4.2-7,4.4
	s-5.5,3.2-1.9,6.1c2.1,1.6,1.8,5.1,1.5,8.2c0.8,0,1.6-0.4,2.2-1c1.5-1.8,3-1.5,3,0.3s3.3,1.2,5.2,1.2c1.9,0,1.2,1.5,3.3,0
	s5.2-0.9,5.2,0.9s4.6,0.9,2.1,3.3s-5.5,3-5.5,4.9s2.7,5.8,0.6,7.9s0.6,5.8-1.5,5.8s-4.6,0.9-2.1,3.3s4.3,4.5,2.4,4.5s-3,3.6-2.1,4.5
	s5.2,3.6,1.8,4.2s-3.4,3.4-3.4,5.2c0.2,1,0.6,1.9,1.2,2.7c1.5-0.4,3.1-0.2,4.5,0.3c3.5,1.6,5.5,10.3,10.2,9.7c2-0.3,1-1.8,2-2.8
	s2.9-0.2,4.9-0.2s3-2.9,7.7-3s7.7-0.5,10.7-0.4s5.4-0.9,6.1-3s3.3-4,6.6-4.5s2.9-4,3.1-6s5.9-5,6.2-6.5s-3.2-7.2,0.1-12.3
	s7-5.4,7-8.2c0-2.6,3.5-3.6,7.7-4.1s5.6-3.4,9.2-4.9C123.4,363.1,124.5,360.9,123.9,357.3z"/>
<path class="st3" d="M117.1,386.8c0.6,4,7.5-1.4,6-2.6C119.9,382,116.5,382.8,117.1,386.8z"/>
<path class="st1" d="M205.3,324.1c2-0.8,4.3-1.1,5.4-0.7s1.3,1.4,1.5,2.5c2-0.2,4-0.6,5.9-1.1c1.5-0.6,4.9,1.3,5.2,0.2
	s1.5-3.7,3-3.7s0.6-3.9,2.1-4.1s5.2-3.5,5.2-3.5s-1.5-3-2-3.2s-2.4,1.9-5.8,1.9s-5.8,2.6-7.3,2.6s-6.2-1.5-9.4-1.7
	c-1.1-0.1-2.3-0.2-3.4-0.3C205.3,316.6,205.2,320.3,205.3,324.1z"/>
<path class="st1" d="M316.3,363.7c-1.9,0.2-4.5,0.9-4,1.9c0.5,1.2-1.3,2-3.2,2c0,0-7-0.5-9-1.5c-1.5-0.8-8.2-0.4-11.3-0.1
	c0,0.1-0.1,0.3-0.2,0.4c-0.8,1.1-6.7,4.2-7.9,3.6s-1.7,1.9-3.9,2.4s-5.6-0.2-5.8,0.8c-0.7,1.8-1.7,3.5-3,4.9
	c-1.3,1.3-0.2,2.8-2.1,3.2c-1.2,0.3-1.7,2.5-2.4,4.5c0.1,0.1,0.2,0.1,0.4,0.2c3,1.1,4.8,4.1,4.5,7.2c-0.4,3.1,4,4.3,6,2
	s7.6,1.2,7.6,2.7s-5.7-1.6-9,0.8s2.5,4.6,1.8,7.1s1.5,6,4.4,5.9s6.1,4.6,7.9,3.7s-2.1-7.5-1.5-8.5s4.1,1.8,5.9-0.3s-1.2-3.5-3.9-3.4
	s-0.1-3.5,3-1.6s4.6-0.5,6.1-0.8s1.9-5.6-2.7-6.9s-4,3.4-7,0.2s2.8-1.9,2.8-4.5s-4.6-6.4-6.9-9.5s3.1-4.6,4.4-2.4s4.6,1.9,6.7,1
	s-2.2-4.9,1.6-6.4s3.9,1.1,5.1,1.6s2.4-3.1,6.4-3.1c2.1,0,3.9,1.4,5.7,2.7c1.1-1.2,2-1.9,2-2.9c0-1.3,2.4-1.9,2.4-3.9
	C316.9,365.9,316.7,364.8,316.3,363.7z M309.3,426.6c-2-1.1-11,0.8-13.3-1.5s-7.2,1.8-5.1,2.1c3,0.5,7.5,3.1,12.3,3.2
	s11.5-2.2,11.4-3.5S311.3,427.7,309.3,426.6L309.3,426.6z"/>
<path class="st1" d="M41.7,230.4c-1-0.7-2-1.6-2.8-2.5c-3.2-3.8-4.5-0.8-4.9,1.5s-3.4-0.8-5.3-1.1s0.6-4,1.9-4.9
	c0.9-0.6,1.8-2.4,2.3-4.8c-0.3,0-0.7-0.1-1-0.2c-3.5-1.4-8.4-1.4-8.5,1.8s3.9,2,4,4s-4,1.5-6.9,3.5s-6-1.4-9,0.1s3.2,3.3,1,6.4
	s0.1,3,3.9,6s-2.2,3.7-2.2,7.1s-4.6,3.2-5.6,5.5s4,6.7,8.4,6.7c3.1,0,10.3-2,14.6-6s6.5-0.1,10.3-2.1s1.5-16.6,0-19.6
	C41.7,231.4,41.6,230.9,41.7,230.4z"/>
<path class="st1" d="M43.5,216.9c-3.2-3-7.2,1.7-10.6,1.7c-0.5,2.4-1.4,4.2-2.3,4.8c-1.3,1-3.8,4.5-1.9,4.9s4.9,3.4,5.3,1.1
	s1.7-5.3,4.9-1.5c0.8,0.9,1.8,1.8,2.8,2.5c0.5-1.7,4.5-2,6.5-4.1C50.7,223.9,47,220.3,43.5,216.9z M111.7,247.8
	c0.3-3.7-8-6.4-8.9-4.4s-2.7,1.8-4.1-0.5s1.3-4.4-0.1-4.6s-3.1-3.4-2.7-4.6s-2.1-9.2-6.4-10.2s-4.9-7-5.6-10.2s-3.5-1.5-5.6-4.2
	s-5.7-1.4-7.6-1.2c-1.9,0.1,0-3.5,3-5.5s6.5-12.6,6.5-14.7s-13.1-2-15.6-0.8c-2.5,1.3-5-1.9-2.9-2.8s6.6-5.2,6.4-7s3.1-3.4,1.3-5
	c-1.9-1.6-2.1,2.1-3.7,3.4c-1.6,1.3-5.2,0.9-9.1,0.1s-5.4,4.7-5.2,7.1s-4.5,3.7-3.7,5.7s-0.9,3.5-2.1,2.4s-2.6-3.9-5.1-1.9
	s2.9,4.6,6.1,5s-2.5,2.7-3.1,6.2s4.2,2,4.5,4.5s-7,2.9-7,5.2s4.1-1.1,6-2.1s-1,5.9,3.5,5.1s3.2-6.9,4.9-6.6s-0.7,3.2,0.6,5.9
	s-3.3,6.6-3,8.5s9.2,1.9,12.1-1.1c2.9-3,4.2,0.3,2.3,2.5c-2,2.3-1.1,4.4,1.4,5.2s3.4,1.1,2.3,3.1s-0.1,5.7-0.8,7.6
	c-0.6,1.9-8.4,1.6-8.6,0.4s-3.5-0.4-2.6,1.4s-2.8,3.6-2.5,5.2s4.9,1.2,5,3.2s-3.4,4.4-8.1,5.7s1,5.1,3.2,3.5s1.8,1.1,5,1.1
	s5.2,2.6,8.9,1.3s3.5,0,0.8,2.1s-6.9-0.1-9.4,1.3S49.4,274,51.3,276.3c1.1,1.4,2.6-2,6.2-3.5s4.2,1,6.2,1.2c2,0.2,2.1-4.1,3.7-3.7
	s3.1-1.4,6.1-0.9c2.4,0.4,4.8-0.3,6.6-1.9c1.5-1.2,5.5,2.5,6.7,1.6s6.7-1.9,9.5-1.8s9.9-3.1,11.7-4.9s-1.1-2.1-3.6-1.7s-2-2.5,0.6-5
	S111.4,251.6,111.7,247.8L111.7,247.8z M36.8,185.2c3.4-0.1,7.2-5.9,5.6-7.5S34.3,185.3,36.8,185.2z M85,158.2
	c2.1-2.1,4.6-10.2,1.4-9.4S84.1,159.1,85,158.2z"/>
<path class="st1" d="M43.5,216.9c-3.2-3-7.2,1.7-10.6,1.7c-0.5,2.4-1.4,4.2-2.3,4.8c-1.3,1-3.8,4.5-1.9,4.9s4.9,3.4,5.3,1.1
	s1.7-5.3,4.9-1.5c0.8,0.9,1.8,1.8,2.8,2.5c0.5-1.7,4.5-2,6.5-4.1C50.7,223.9,47,220.3,43.5,216.9z M111.7,247.8
	c0.3-3.7-8-6.4-8.9-4.4s-2.7,1.8-4.1-0.5s1.3-4.4-0.1-4.6s-3.1-3.4-2.7-4.6s-2.1-9.2-6.4-10.2s-4.9-7-5.6-10.2s-3.5-1.5-5.6-4.2
	s-5.7-1.4-7.6-1.2c-1.9,0.1,0-3.5,3-5.5s6.5-12.6,6.5-14.7s-13.1-2-15.6-0.8c-2.5,1.3-5-1.9-2.9-2.8s6.6-5.2,6.4-7s3.1-3.4,1.3-5
	c-1.9-1.6-2.1,2.1-3.7,3.4c-1.6,1.3-5.2,0.9-9.1,0.1s-5.4,4.7-5.2,7.1s-4.5,3.7-3.7,5.7s-0.9,3.5-2.1,2.4s-2.6-3.9-5.1-1.9
	s2.9,4.6,6.1,5s-2.5,2.7-3.1,6.2s4.2,2,4.5,4.5s-7,2.9-7,5.2s4.1-1.1,6-2.1s-1,5.9,3.5,5.1s3.2-6.9,4.9-6.6s-0.7,3.2,0.6,5.9
	s-3.3,6.6-3,8.5s9.2,1.9,12.1-1.1c2.9-3,4.2,0.3,2.3,2.5c-2,2.3-1.1,4.4,1.4,5.2s3.4,1.1,2.3,3.1s-0.1,5.7-0.8,7.6
	c-0.6,1.9-8.4,1.6-8.6,0.4s-3.5-0.4-2.6,1.4s-2.8,3.6-2.5,5.2s4.9,1.2,5,3.2s-3.4,4.4-8.1,5.7s1,5.1,3.2,3.5s1.8,1.1,5,1.1
	s5.2,2.6,8.9,1.3s3.5,0,0.8,2.1s-6.9-0.1-9.4,1.3S49.4,274,51.3,276.3c1.1,1.4,2.6-2,6.2-3.5s4.2,1,6.2,1.2c2,0.2,2.1-4.1,3.7-3.7
	s3.1-1.4,6.1-0.9c2.4,0.4,4.8-0.3,6.6-1.9c1.5-1.2,5.5,2.5,6.7,1.6s6.7-1.9,9.5-1.8s9.9-3.1,11.7-4.9s-1.1-2.1-3.6-1.7s-2-2.5,0.6-5
	S111.4,251.6,111.7,247.8L111.7,247.8z M36.8,185.2c3.4-0.1,7.2-5.9,5.6-7.5S34.3,185.3,36.8,185.2z M85,158.2
	c2.1-2.1,4.6-10.2,1.4-9.4S84.1,159.1,85,158.2z"/>
<path class="st1" d="M184.6,199.8c-1.3-0.6-1.8-4.6-0.3-5.9s2.1-6,0.9-7.2s-5.7,0-6.1,3.4s-4,1.9-5,2.6s2,2.2,0.4,3.7
	s-2.2-2.3-4.9-2.5s-2.9,4-4.2,6.1s-0.5,6.6,0,9.6s4.1,4.9,3.2,7.4c-0.4,1.2,0.4,2.5,1.3,3.7c2.6,0,5.2,0.2,7.7,0.8
	c1,0.2,2.1,0.1,3.1-0.1c-1.1-1.8-3.6-3.2-3.4-4.5c0.3-1.7,2.6-0.6,4.4,0.9s5.6,1.8,6-0.1c0.2-1.1-0.6-6.5-3-5.2s-3,0.8-3.9-0.5
	s1.8-3.2,2.4-5.2s4.7-1.3,5.4-2.9S185.9,200.4,184.6,199.8z M203.4,207.4c-1-0.6-1.8,1.7-2.9,2s-2.4-4.7-2.9-2s-3-1.1-5.5,2.4
	s1.5,6.6,3.2,7.7s-0.1,2.7-2.4,2.2s-0.9,3.2,2.2,3.7s6.5-5.5,6.1-7S204.6,208.2,203.4,207.4L203.4,207.4z"/>
<path class="st1" d="M295.7,74.8c-1.2-1.2-3.6-4.4-1.6-4.4s2.8-6,0.4-7.2s0-6.4-2-7.6s-0.8-5.2-0.4-8s-7.6-5.2-12-7.2
	s-6.4-5.2-10-7.2s-4.8,3.2-4.8,6.4s-3.2,3.6-5.6,1.6s-5.2,0-8.8-1.6s-2,3.6-2,6s-4,2.4-6.4,2.4s-6.4,2-6.4,4.8s-3.6,4.4-2.4,6
	s-0.4,3.2-2,4.4c-1.6,1.2-3.2,5.2-4.4,6.4c-1.2,1.2,0.8,3.2-1.6,4.8s-5.2,0.4-6.4,1.6s0,4-0.4,7.6s-3.2,7.6-5.6,10.8s0.8,4,2,4.4
	s1.2,2.4,0,4.8s-4,0.8-5.6,0.4s-6,1.6-8.4,5.6s-1.6,6.4-0.8,8.4s-2,4.4,0,8.4c2,4-0.8,4.8-0.4,8s5.2,2.8,5.6,6s-1.6,4.4-3.2,4.4
	s-1.2,3.2,0.4,4s1.2,6.4,0.4,8s-6,0-5.6,2s-1.2,5.2-1.2,6.8s-0.4,6.8-2,5.6c-0.8-0.4-1.7-0.6-2.6-0.4c0,0.3,0,0.5,0,0.8
	c-0.2,3.3,1.2,6.4,3.7,8.5c2.7,2.3,0.6,5.6,3,8.7s1.6,5.4,4.2,7.6s2.9,3.5,1.8,6.4s2.3,2.1,2.4,3.9s-0.7,5.4,0.1,7.1s2.6,0,6.6-0.1
	s3-2.6,3.1-5s2.1-1.2,2.6-2.7s4.1-1.9,7-0.6s4.4-0.9,4.9-3.9s2.1,0.6,3,1.2s3.5-4.6,4.7-8s-0.1-2.7-3,0.5s-1.2-3.2-0.1-5.9
	s1-10.2,1.4-12s1.1-4.4,4.7-5.1s8.4-5.2,7.6-7.1s5-5,5-6.9s-6-7.6-8-8.9s-6.4-0.3-6-1.6s-0.5-6.7-1-9.5s3.1-5.6,3.1-8.2
	s-0.1-5.6,2.3-6.5s0.9-3.1,4-3.9s2.5-5.2,5.9-6.6s3.6-2.5,8-4.6s11.7-7.1,13-9.7s-4.5-5.4-0.9-8.1s0.6-5.9,3.2-6.9s3.6-2.4,5.5-4.4
	s4.4-0.1,8.8-0.9c1.5-0.2,3.1-0.2,4.6,0.2C296.7,77,296.2,75.4,295.7,74.8z M253.6,184.5c-4.7,0.1-7,9.4-5.7,11
	C248.8,196.7,258.3,184.4,253.6,184.5z"/>
<path class="st1" d="M327.5,168.6c1-2.2,3.7-2.6,1.7-5.5c-0.5,0.4-1.2,0.7-1.8,0.9c-3.6,1-11.5-2.5-16-1.6s-13.6,0.9-15.7,3.1
	s-7.5,2.9-5.1,4.9s0,3,1.8,5.4s2.6,3.4,5,2.9s4.2,0.7,1.7,3.4c0,0.1-0.1,0.1-0.1,0.1c4-0.4,8.4-0.6,9.1-0.1c1,0.8,7,5.5,8.5,5
	c0.9-0.3,5,0.1,8,0.5c-0.4-0.8-0.3-1.7,0.3-2.3c1.1-0.9,3.6-0.9,2.3-2.8s-1.7-2.2-1.9-4.5s-0.8-3.4-0.6-4.9S326.4,171,327.5,168.6z
	 M283.4,174.6c-4.5,1.3-5.1,7.4-3.4,7.4c2.2-0.1,7.4-4.4,8.7-5.7S287.8,173.4,283.4,174.6L283.4,174.6z M287.1,171
	c1-1.9-7.2-1-5.4,0.6C283.1,172.9,286.1,172.9,287.1,171L287.1,171z"/>
<path class="st1" d="M349.4,21.5c-0.5,1.9-3.9,1.5-3.7-0.4s-5.2-3.4-5.5-4.2s2.3-0.8,4.2,0.4s3.4,0.4,5.6-1.7s5.4-0.4,5.7-2.2
	s-3.6-3.1-4.4-4.2s-3.6-2.6-6.4-2.1S342,6.5,340.4,5s-6.6,1-6.6,4.5s-3.1,2.6-2,0.8s-1.5-4.1,1-4.7s1.1-4.4-3.5-4.7
	s-6.4,3.5-5.2,4.7s-3.1,6.6-5,6.6s0.3-4.6,0.1-7.1s-1.9-1.1-5.4,2.8s-6.1,7.6-8.1,8s-1.8-3.6,1.5-5.4s3.4-6.5,5.5-6.5s2.1-2.5-1-3.2
	s-3.6,2.7-4.6,3.7s-6.1-1.8-6-0.8s-2.7,1.4-1.5,3.2s-0.6,3.5-1.9,1.3s-4.4-0.5-5.9,2s-3.5,2.4-2,3.3s1.4,4.2-0.9,4.9
	s-1.4-6.1-3.1-5.5s-0.6-3.2,1.7-3.2s4.7-3.5,4.5-4.4c-0.4-1.5-3-1.1-3,0.8s-3.7,1.5-6.9,1.4s-3,3.6,0.5,5.6s-0.6,3.3-2.4,1.8
	s-4.5-0.8-6.4,0.1s4.5,3.1,4.8,4.2s-3.3-1.4-4-0.5s-4.2-0.6-4.5-2.7s-5.9,0.9-2.7,1.6s2,2.8,2,5.5s-3.6,0.6-2.9-1.8
	s-2.3-1.9-4.7-0.4s0.4-2.7-0.6-4.9s-3.3,0-5.9,0.5s-4,0.6-2.4,2.4s1.4,4.2-0.8,3.9s-3,0-2.7,2s-2.7,2.1-3,0.4s-4.5-1.3-5.7,0.8
	s-4.7,3.5-4.4,5.7s3.1-1.1,5.4-0.4c2.3,0.7-0.1,1.9,1.1,3s1,3.9-0.8,2.3s-4-2.1-4.4,0.5s-2.2-0.4-3.7-2.3s-3,3.5-4.6,2.3
	s3.2-5.1,2-7s-2.1,1.1-5,4s-6.7,2.8-5.4,4.2s-2.9,2.1-3.6,4.5s-6.6,3.3-10.4,5.7s0.8,2.6,2.9,0.2s2.9-1,6.2-3.1s7-3.9,8.2-3
	c1.4,1.2,3.5,1.1,4.7-0.3c0.1-0.1,0.2-0.3,0.3-0.4c1.6-2.3,3.6-1.8,5.2-0.4s-2.7,2.5-0.8,4.5s-2.4,3.1-2.4,1.4s-2.5-3.2-3.4-1.6
	s-2.4,3.4-4,3.5s-3.4,3.1-3.4,6.1s-2.9,0-3.1,2.6s-4.2,7.2-7.7,10.6s-0.3,4.1-1.4,6.2s-5.2,0.3-6.6,1.1c-1.4,0.9,0.7,6.1-1.1,7.7
	s0,3.9,0,5.7s-4.9-1.1-5.2,0.8s-4.6,1.4-5.9,1.9s2.5,3.5,4.7,5.2s-2.1,3.1-2.6,1.1s-3.6,1.3-7.5,3s-2.3,5.2-5.2,5.4
	s-2.1,4.9-4.1,6.4s-1.5-3.5-4.6-3.6s-2.9,2.1-1,4.7s-2.9,0.6-4.6,2.9s-6.7,1.1-8.1,3s3.7,1.9,4.5,3.4s-4.5,0.8-7.2,0.1s-2,3.5-4.5,3
	s-5.6,2.1-3.9,3.9s-1.4,2-3.1,0.9s-3.2,1.6-3.9,3.7s3.4,3.3,3.2,4.2s-3.2,2.6-1,3.1s0.6,2.5-0.9,3.1s-1.5,2.1,0,4s-2.6,2.2-0.6,5.1
	s3.5-0.8,4.4,1.4s3.2,0.3,6-2.2s3.7,2.7,1.5,2.6s-4.9,1.2-4.4,3.5s-3.5,1.9-3.4-0.9s-4.6,0.5-2.9,2.5s-0.6,3.1-0.6,5
	s3.4,1.5,4.7-0.6s3.6-1.6,4.5,0.5s-2.1,0.5-2.1,3.4s-1.9,0.4-3.5,2.6s6.4,6.4,8.9,7s4.9,3.4,9.9,2.6s14.5-10,15.7-11.6
	s4,0.3,5.9-1.3s0.8-5.4,2.1-6.1s2.1,4.1,3.4,4.6s1.9,1.3,2,3.8c0.9-0.2,1.8-0.1,2.6,0.4c1.6,1.2,2-4,2-5.6s1.6-4.9,1.1-6.9
	s4.8-0.4,5.6-2s1.2-7.2-0.4-8s-2-4-0.4-4s3.6-1.2,3.2-4.4s-5.2-2.8-5.6-6s2.4-4,0.4-8s0.8-6.4,0-8.4s-1.6-4.4,0.8-8.4s6.8-6,8.4-5.6
	s4.4,2,5.6-0.4s1.2-4.4,0-4.8s-4.4-1.2-2-4.4s5.2-7.2,5.6-10.8s-0.8-6.4,0.4-7.6s4,0,6.4-1.6s0.4-3.6,1.6-4.8s2.8-5.2,4.4-6.4
	c1.6-1.2,3.2-2.8,2-4.4s2.4-3.2,2.4-6s4-4.8,6.4-4.8s6.4,0,6.4-2.4s-1.6-7.6,2-6s6.4-0.4,8.8,1.6s5.6,1.6,5.6-1.6s1.2-8.4,4.8-6.4
	c0.3,0.2,0.5,0.3,0.8,0.5c1.2-2.7,3.5-4.4,5.6-4.1c3.2,0.4,5.2,6,9.2,6.8s8,2.4,9.2,0.4s4,1.2,6.4,0.4s2.4,4.4,4.8,1.2
	s-0.4-5.2,3.6-4.8s1.6-4.4,1.6-7.2s5.2-3.2,5.2-5.6s7.2-0.4,8.4-2s5.2-2.8,6.8,0s8.4,3.6,8.8,6c0.1,1.6,0.1,3.1,0,4.7
	c1-1.1,2.4-1.8,3.9-1.9c2.5,0,4.7-3.7,7-3.2c1.9,0.4,3.7,0.1,4.3-3C353.7,20,349.9,19.9,349.4,21.5z"/>
<path class="st1" d="M219.8,400.1c-5.1,1.1-7.2,1.5-10.2,0s-7.8,1.4-7.1,3.4c0.5,1.4,2.5,3.1,8.7,4.8c6.2,1.6,7,5.9,9.6,6
	s2.9-2.4,2.3-5.7s3.1-7.2,3.5-7.9S224.9,399,219.8,400.1z M171.5,371.9c-2.7,2.4-5-0.4-6.1,1.5c-1.4,2.4,4.2,6,3.1,10.8
	s0.6,11,3.5,8.1s4.2-1.5,5.9-3.6s0.3-10,1.4-13.7S174.3,369.5,171.5,371.9L171.5,371.9z M232.6,367.9c-3.2-2-1.1-5.2-6.2-5
	s-11.2-6.1-13.1-13.5s-9.8-7.7-11.8-12.1s1.9-4.9,0.1-8.5c-1-2,1.2-3.8,3.7-4.8c-0.1-3.7,0-7.5,0.4-11.2c-1.5-0.1-2.9-0.4-4.3-0.9
	c-0.9-0.6-1.1-3.6-1.7-3.6s-5.8,0-6.7,0.9s-3.7,2.6-5.2,1.7c-0.3-0.2-0.7-0.4-1-0.6l-1.6,1.5c0,0-0.3,2-1.3,2s-2.5-0.7-2.5,1
	s-2.7,1.3-4,1s-3,0.3-3,1.7s-0.3,4.7-2.2,3s-4-6.2-4.7-5.7s-2.5,6-4.2,6c-1.1,0-4.6,0.3-7.2,0.5c-0.7,2.1,0,3.4,1,4
	s-0.6,2.8-1.7,3.4s-3,0-1.7,2s3.7,2.2,2.4,4.3c-0.9,1.1-0.7,2.7,0.4,3.6c0.4,0.3,0.9,0.5,1.5,0.6c1.9,0.2,4.5-0.2,3.9,1.3
	c-0.4,0.9-0.7,1.9-0.9,2.9c1.4-0.3,2.8-0.6,4.1-1.2c2.6-1.4,1.5-3.7,5.9-5s10.1,2.4,11.9,5s2.2,2.9,2.6,5s2,6.4,8,10.2
	s8.4,8.2,11.5,9.9c3.1,1.6,6.2,1.3,8.1,3.5s4.4,3.5,7.4,4.9s3.1,4.6,6,5s1,2.9,2.7,5s2.3,6.6,0.4,9.1s-0.9,6.7,0.4,6.7
	s3.9-4.5,4.2-7s2.9-2.4,4.9-5s-3-3.2-3.9-6.6s3.7-6.4,8.1-3.6s6.1,4.6,6.4,0.4S235.8,369.9,232.6,367.9L232.6,367.9z"/>
<path class="st1" d="M253,347.3c-1.7,2.3-3.4,5.3-3.2,6.3c0,0.9-0.1,1.8-0.4,2.6c1.9,1.6,3.9,3.1,6,4.4l0.5,0.2
	c0.5-2.8,2.4-5.6,3.8-6C257.7,352.5,254.9,349.2,253,347.3z"/>
<path class="st1" d="M282.6,345.3c-1.9-1.7-1.7-4.7,0-5.8s0.2-2.6,0.2-4.5s-8-2.4-9.4-2.8s0.9-5.2-1.1-5.2c-1.5,0.1-2.7-1.1-2.8-2.6
	c0-0.1,0-0.3,0-0.4c0-1.5-3.2-3.9-3-4.9c0-0.1,0.1-0.3,0.2-0.4c-1.1-0.2-2-0.3-2.4-0.4c-1.2-0.3-2.4-0.7-3.6-1.1
	c0,0-5.2,1.7-8.7,2.8c0.2,2.2,0.8,4.6,2.2,5.1c2.7,1,1.7,3.7,2.7,6c1,2.3,0.7,13.1-0.7,13.1c-0.6,0-1.9,1.4-3.1,3.1
	c1.8,1.8,4.7,5.2,6.6,7.6c0.1,0,0.2-0.1,0.3-0.1c1.7,0,7.8,4.5,7.8,4.5s8.7-1.8,14.5-2.7c0.1-0.8,0.2-1.7,0.2-2.5
	c-0.2-1.1,1.1-3.4,2.8-3.4S284.5,347,282.6,345.3z"/>
<text transform="matrix(1 0 0 1 249.12 251.87)" class="st4 st5 st6">POLAND</text>
<text transform="matrix(1 0 0 1 352.48 284.56)" class="st4 st5 st6">UKRAINE</text>
<text transform="matrix(0.5822 0.8131 -0.8131 0.5822 325.2086 296.7598)" class="st7 st5 st8">MOLD</text>
<text transform="matrix(0.5822 0.8131 -0.8131 0.5822 331.3984 305.4028)" class="st7 st5 st8">O</text>
<text transform="matrix(0.5822 0.8131 -0.8131 0.5822 332.8877 307.4845)" class="st7 st5 st8">V</text>
<text transform="matrix(0.5822 0.8131 -0.8131 0.5822 334.263 309.4052)" class="st7 st5 st8">A</text>
<text transform="matrix(1 0 0 1 214.92 277.09)" class="st7 st5 st9">CZ</text>
<text transform="matrix(1 0 0 1 221.07 277.09)" class="st7 st5 st9">E</text>
<text transform="matrix(1 0 0 1 223.99 277.09)" class="st7 st5 st9">CH</text>
<text transform="matrix(1 0 0 1 211.2 283.09)" class="st7 st5 st9">REPUBLIC</text>
<text transform="matrix(1 0 0 1 71 245.43)" class="st7 st5 st6">UNITED</text>
<text transform="matrix(1 0 0 1 71 252.63)" class="st7 st5 st6"> KINGDOM</text>
<text transform="matrix(1 0 0 1 209.86 303.96)" class="st7 st5 st9">A</text>
<text transform="matrix(1 0 0 1 213.05 303.96)" class="st7 st5 st9">U</text>
<text transform="matrix(1 0 0 1 216.51 303.96)" class="st7 st5 st9">S</text>
<text transform="matrix(1 0 0 1 219.49 303.96)" class="st7 st5 st9">TRI</text>
<text transform="matrix(1 0 0 1 226.73 303.96)" class="st7 st5 st9">A</text>
<text transform="matrix(1 0 0 1 98.08 314.81)" class="st7 st5 st10">FRANCE</text>
<text transform="matrix(1 0 0 1 281.45 324.69)" class="st7 st5 st10">ROMANI</text>
<text transform="matrix(1 0 0 1 315.54 324.69)" class="st7 st5 st10">A</text>
<text transform="matrix(1 0 0 1 290.31 355.62)" class="st7 st5 st9">BU</text>
<text transform="matrix(1 0 0 1 297.03 355.62)" class="st7 st5 st9">L</text>
<text transform="matrix(1 0 0 1 299.72 355.62)" class="st7 st5 st9">G</text>
<text transform="matrix(1 0 0 1 302.97 355.62)" class="st7 st5 st9">ARI</text>
<text transform="matrix(1 0 0 1 310.68 355.62)" class="st7 st5 st9">A</text>
<text transform="matrix(1 0 0 1 268.71 388.48)" class="st7 st5 st11">GRE</text>
<text transform="matrix(1 0 0 1 276.29 388.48)" class="st7 st5 st11">E</text>
<text transform="matrix(1 0 0 1 278.63 388.48)" class="st7 st5 st11">CE</text>
<text transform="matrix(1 0 0 1 49.04 382.98)" class="st7 st5 st10">S</text>
<text transform="matrix(1 0 0 1 54.67 382.98)" class="st7 st5 st10">P</text>
<text transform="matrix(1 0 0 1 60.16 382.98)" class="st7 st5 st10">AIN</text>
<text transform="matrix(0.2163 -0.9763 0.9763 0.2163 27.0801 397.7796)" class="st7 st5 st6">PO</text>
<text transform="matrix(0.2163 -0.9763 0.9763 0.2163 28.7539 390.2239)" class="st7 st5 st6">R</text>
<text transform="matrix(0.2163 -0.9763 0.9763 0.2163 29.5735 386.5237)" class="st7 st5 st6">TU</text>
<text transform="matrix(0.2163 -0.9763 0.9763 0.2163 31.1912 379.22)" class="st7 st5 st6">G</text>
<text transform="matrix(0.2163 -0.9763 0.9763 0.2163 32.0369 375.4026)" class="st7 st5 st6">A</text>
<text transform="matrix(0.2163 -0.9763 0.9763 0.2163 32.8804 371.595)" class="st7 st5 st6">L</text>
<text transform="matrix(1 0 0 1 175.01 258.49)" class="st4 st5 st6">GERMAN</text>
<text transform="matrix(1 0 0 1 199.29 258.49)" class="st4 st5 st6">Y</text>
<text transform="matrix(1 0 0 1 209.11 162.15)" class="st7 st5 st10">S</text>
<text transform="matrix(1 0 0 1 214.62 162.15)" class="st7 st5 st10">WEDEN</text>
<text transform="matrix(1 0 0 1 154.87 145.49)" class="st7 st5 st10">NO</text>
<text transform="matrix(1 0 0 1 167.38 145.49)" class="st7 st5 st10">R</text>
<text transform="matrix(1 0 0 1 173.23 145.49)" class="st7 st5 st10">W</text>
<text transform="matrix(1 0 0 1 180.32 145.49)" class="st7 st5 st10">A</text>
<text transform="matrix(1 0 0 1 185.73 145.49)" class="st7 st5 st10">Y</text>
<text transform="matrix(1 0 0 1 294.73 125.73)" class="st7 st5 st10">FINLAND</text>
<text transform="matrix(1 0 0 1 173.44 331.23)" class="st7 st5 st10">I</text>
<text transform="matrix(1 0 0 1 175.77 331.23)" class="st7 st5 st10">T</text>
<text transform="matrix(1 0 0 1 180.25 331.23)" class="st7 st5 st10">A</text>
<text transform="matrix(1 0 0 1 186.3 331.23)" class="st7 st5 st10">L</text>
<text transform="matrix(1 0 0 1 190.38 331.23)" class="st7 st5 st10">Y</text>
<text transform="matrix(1 0 0 1 257.6 349.65)" class="st7 st5 st12">SERBI</text>
<text transform="matrix(1 0 0 1 276.79 349.65)" class="st7 st5 st12">A</text>
<text transform="matrix(1 0 0 1 239.19 310.48)" class="st7 st5 st12">HUN</text>
<text transform="matrix(1 0 0 1 253.71 310.48)" class="st7 st5 st12">G</text>
<text transform="matrix(1 0 0 1 258.27 310.48)" class="st7 st5 st12">A</text>
<text transform="matrix(1 0 0 1 262.82 310.48)" class="st7 st5 st12">R</text>
<text transform="matrix(1 0 0 1 267.14 310.48)" class="st7 st5 st12">Y</text>
<text transform="matrix(1 0 0 1 251.36 289.16)" class="st7 st5 st9">S</text>
<text transform="matrix(1 0 0 1 254.39 289.16)" class="st7 st5 st9">L</text>
<text transform="matrix(1 0 0 1 257.07 289.16)" class="st7 st5 st9">O</text>
<text transform="matrix(1 0 0 1 260.28 289.16)" class="st7 st5 st9">V</text>
<text transform="matrix(1 0 0 1 263.24 289.16)" class="st7 st5 st9">AKI</text>
<text transform="matrix(1 0 0 1 270.62 289.16)" class="st7 st5 st9">A</text>
<text transform="matrix(0.804 -0.5947 0.5947 0.804 133.25 258.8799)" class="st7 st5 st13">NETHERLANDS</text>
<text transform="matrix(0.9689 0.2475 -0.2475 0.9689 124.9301 267.95)" class="st7 st5 st9">BE</text>
<text transform="matrix(0.9689 0.2475 -0.2475 0.9689 130.9565 269.4896)" class="st7 st5 st9">L</text>
<text transform="matrix(0.9689 0.2475 -0.2475 0.9689 133.5629 270.1554)" class="st7 st5 st9">GIUM</text>
<text transform="matrix(1 0 0 1 282.72 214.67)" class="st7 st5 st9">LITH</text>
<text transform="matrix(1 0 0 1 293 214.67)" class="st7 st5 st9">U</text>
<text transform="matrix(1 0 0 1 296.39 214.67)" class="st7 st5 st9">ANI</text>
<text transform="matrix(1 0 0 1 304.32 214.67)" class="st7 st5 st9">A</text>
<text transform="matrix(1 0 0 1 300.73 197.89)" class="st4 st5 st6">L</text>
<text transform="matrix(1 0 0 1 304.02 197.89)" class="st4 st5 st6">A</text>
<text transform="matrix(1 0 0 1 307.47 197.89)" class="st4 st5 st6">TVI</text>
<text transform="matrix(1 0 0 1 316.14 197.89)" class="st4 st5 st6">A</text>
<text transform="matrix(1 0 0 1 298.88 174.09)" class="st7 st5 st9">E</text>
<text transform="matrix(1 0 0 1 301.84 174.09)" class="st7 st5 st9">S</text>
<text transform="matrix(1 0 0 1 304.83 174.09)" class="st7 st5 st9">T</text>
<text transform="matrix(1 0 0 1 307.52 174.09)" class="st7 st5 st9">ONI</text>
<text transform="matrix(1 0 0 1 315.51 174.09)" class="st7 st5 st9">A</text>
<text transform="matrix(1 0 0 1 20.08 241.61)" class="st7 st5 st9">IRELAND</text>
<text transform="matrix(1 0 0 1 268.46 365.9)" class="st7 st5 st14">M</text>
<text transform="matrix(1 0 0 1 270.8 365.9)" class="st7 st5 st14">A</text>
<text transform="matrix(1 0 0 1 272.71 365.9)" class="st7 st5 st14">CEDONI</text>
<text transform="matrix(1 0 0 1 283.26 365.9)" class="st7 st5 st14">A</text>
<text transform="matrix(1 0 0 1 257.24 374.24)" class="st7 st5 st14">AL</text>
<text transform="matrix(1 0 0 1 260.83 374.24)" class="st7 st5 st14">B</text>
<text transform="matrix(1 0 0 1 262.77 374.24)" class="st7 st5 st14">ANI</text>
<text transform="matrix(1 0 0 1 267.53 374.24)" class="st7 st5 st14">A</text>
<text transform="matrix(1 0 0 1 234.69 334.86)" class="st7 st5 st14">BOSNI</text>
<text transform="matrix(1 0 0 1 243.25 334.86)" class="st7 st5 st14">A </text>
<text transform="matrix(1 0 0 1 245.82 334.86)" class="st7 st5 st14">AND</text>
<text transform="matrix(1 0 0 1 234.69 338.46)" class="st7 st5 st14">HERZ</text>
<text transform="matrix(1 0 0 1 242.22 338.46)" class="st7 st5 st14">E</text>
<text transform="matrix(1 0 0 1 243.98 338.46)" class="st7 st5 st14">G</text>
<text transform="matrix(1 0 0 1 245.97 338.46)" class="st7 st5 st14">O</text>
<text transform="matrix(1 0 0 1 247.9 338.46)" class="st7 st5 st14">VIN</text>
<text transform="matrix(1 0 0 1 252.62 338.46)" class="st7 st5 st14">A</text>
<text transform="matrix(1 0 0 1 228.11 325.87)" class="st7 st5 st11">CR</text>
<text transform="matrix(1 0 0 1 233.27 325.87)" class="st7 st5 st11">O</text>
<text transform="matrix(1 0 0 1 235.87 325.87)" class="st7 st5 st11">A</text>
<text transform="matrix(1 0 0 1 238.17 325.87)" class="st7 st5 st11">TI</text>
<text transform="matrix(1 0 0 1 241.41 325.87)" class="st7 st5 st11">A</text>
<text transform="matrix(1 0 0 1 207.17 319.49)" class="st7 st5 st11">S</text>
<text transform="matrix(1 0 0 1 209.59 319.49)" class="st7 st5 st11">L</text>
<text transform="matrix(1 0 0 1 211.74 319.49)" class="st7 st5 st11">O</text>
<text transform="matrix(1 0 0 1 214.31 319.49)" class="st7 st5 st11">VENI</text>
<text transform="matrix(1 0 0 1 222.97 319.49)" class="st7 st5 st11">A</text>
<text transform="matrix(1 0 0 1 156.44 312.28)" class="st7 st5 st14">S</text>
<text transform="matrix(1 0 0 1 158.22 312.28)" class="st7 st5 st14">WITZERLAND</text>
<text transform="matrix(1 0 0 1 167.76 205.06)" class="st7 st5 st14">DENMAR</text>
<text transform="matrix(1 0 0 1 179.83 205.06)" class="st7 st5 st14">K</text>
<path class="st1" d="M65.1,132.1c4.1-0.2,4-4.8,5.7-4.6c1.7,0.2,4.5-3.2,5.5-5.3c1.1-2.1-1.2-5.9-3.7-5.9s-4.5-2-3.9-3.5
	s-1.4-3.4-1.3-4.5s-3.2-0.1-4.9,0.3c-1.7,0.4-5.3-4.1-6.9-3.3s-0.4,3.1-0.8,4.4s-4.3-1.2-4.3,0.3s-1.6,1.7-2.9,0.1s-4.3-0.6-4.1,0.6
	s-1.3,0.2-3.7-1.3s-5,1.7-4.8,3.3s-0.8,2-2.9-1.5s-4.3,0.3-3.3,2.2s0.6,4.2-1,3.3s-3.7,0.6-4.7,2.1s-4.3-4.4-1.9-5.7
	s-7.7-7.3-10.9-7.3s-1.1,2.3,1.1,4s-1.5,1.3-2.7-0.2s-3.4-0.3-4.7,1.8s-3.4,3.3-3.6,4.8s3.6,3.1,6.9,1.7s7-1.6,8.7,0
	s-3.1,2.2-1.4,3.5s0.3,2.3-3.7,2s-8.9,0.9-8.2,2.2s10.3-1.2,10.4,0.2s0,3.7,2.6,2.7s0.8,1.9,2.1,2.4s1,3.1-2.4,3.3s-5.1,0.9-3.6,2.3
	c1.8,1.8,5.5,0.5,9.1-0.3s8.8,3.5,13.1,5.2s11.6-0.6,12.4-2.9s6.6-1.4,8.9-3C58.2,133.6,61.6,132.3,65.1,132.1z"/>
<text transform="matrix(1 0 0 1 26.22 127.74)" class="st7 st5 st15">ICELAND</text>
<path class="st1" d="M185.3,309.9c0-1.5-1.1-2.7-2.5-2.9c-2.6-0.5-2.5-1.4-2.7-2.2c-0.2-0.5-0.5-1.1-0.9-1.5c0,0-1.4,0.1-1.1,2.6
	c0.1,0.8,0.2,1.3,0.2,1.7c0,0.6,0.3,1.1,0.7,1.5c0.7,0.7,1.6,1.2,2.6,1.1C182.8,309.8,184.1,309.7,185.3,309.9z"/>
<path class="st1" d="M97.3,355.3c0,0-0.8,3,3.9,2.9c0,0,3.1-1.6,5.9-0.6s1.8-1.5,1.8-1.5s-2.8-0.5-3.9-1.6s-1.9-1.8-3-1.7
	c-0.4,0-0.8,0.3-0.8,0.8c0,0.1,0,0.3,0.1,0.4C101.4,354,101.5,355.3,97.3,355.3z"/>
<path class="st1" d="M159.6,343.9c-1.5-0.2-3,0.1-4.3,0.7c-1,0.5-3.3,0-3.6,2c-1.1,6.1,3.1,1.1,3.1,1.1l3.9-3.3L159.6,343.9
	L159.6,343.9L159.6,343.9z"/>
<path class="st1" d="M363.4,232.2c-1.5-0.4-2.4-3.7-4.9-4.7s-1.9-3.9-3.9-5.2s-0.8-3.9-0.9-6s0.4-5.2-0.7-5.8s-5.8-3.2-7.9-2.2
	s-3.6,1.7-4.5,0s-2.2-2.6-4.3-2.1c-1.6,0.4-3.3-0.1-4.5-1.3c-0.2-0.2-0.3-0.4-0.4-0.6c-0.9,0.2-1.8,0.5-2.6,1.1c-1.3,1-1.5,3-3.3,3
	s-3.7-0.7-5.7,0.8s-2.5,3.3-2.3,4.5s0.5,3.3-1,3.3s-1.2,1.8-2.7,2.3s-4,2.7-4.2,4s-0.3,4-1.3,4s-4.5,0.5-5.5,1.8s-2.2,2.5-4.2,2
	c-2-0.3-4.1-0.4-6.2-0.4c0,0.3,0,0.5-0.1,0.8c-0.9,2.2-0.4,4.7,1.3,6.4c1.5,1.3,2.1,6.5,0.4,7.3s-4.9,3-4.9,4.3s3.4,2.4,2.8,4.3
	c-0.3,1.5-0.4,3.1-0.1,4.6c1.6,0.1,3.2,0.4,4.5-1s2.3-3.2,5.5-3.2s13,0,14.5,1.7c1.5,1.7,5.5,0.3,7.7,1.3s5.5,2,5.7,0.8
	s3.3,1.8,5.5,0.5s4.2,2.5,5.5,1.8s6.5-0.8,7.7,0.5s1.5-1.3,1.5-2.8s5-5.5,5-5.5c1.9-0.1,3.7-0.5,5.4-1.1c-0.6-1.1-1-2.3-1.3-3.5
	c-0.9-4.1-2.4-6.5-1.3-7.9s4.3,1.7,6,0.9s4.7-2.3,4.3-3.9S364.9,232.5,363.4,232.2z"/>
<text transform="matrix(1 0 0 1 321.95 234.24)" class="st4 st5 st6">BELARUS</text>
<g>
	<g>
		<path class="st16" d="M361.9,255.5c-2.8,0.5-4.9,2.8-5.4,5.5s0.6,5.1,2.5,6.6c1.9,1.6,3.2,3.6,3.9,6l0.4,1.5l0.5-1.5
			c0.7-2.5,2.3-4.5,4.1-6.2c1.4-1.2,2.3-3,2.3-5.1C370.1,258.1,366.3,254.7,361.9,255.5z M363.2,266.2c-2.2,0-3.9-1.8-3.9-3.9
			s1.8-3.9,3.9-3.9c2.2,0,3.9,1.8,3.9,3.9S365.4,266.2,363.2,266.2z"/>
	</g>
</g>
<g>
	<g>
		<path class="st4" d="M333.9,213.4c-1.8,0.3-3.2,1.8-3.5,3.6c-0.3,1.7,0.4,3.3,1.6,4.3s2.1,2.4,2.5,3.9l0.3,1l0.3-1
			c0.4-1.6,1.5-2.9,2.7-4c0.9-0.8,1.5-2,1.5-3.3C339.3,215,336.8,212.9,333.9,213.4z M334.8,220.3c-1.4,0-2.5-1.1-2.5-2.5
			s1.1-2.5,2.5-2.5s2.5,1.1,2.5,2.5C337.4,219.2,336.2,220.3,334.8,220.3z"/>
	</g>
</g>
<g>
	<g>
		<path class="st4" d="M258.9,230.4c-1.8,0.3-3.2,1.8-3.5,3.6c-0.3,1.7,0.4,3.3,1.6,4.3s2.1,2.4,2.5,3.9l0.3,1l0.3-1
			c0.4-1.6,1.5-2.9,2.7-4c0.9-0.8,1.5-2,1.5-3.3C264.3,232,261.8,229.9,258.9,230.4z M259.8,237.3c-1.4,0-2.5-1.1-2.5-2.5
			s1.1-2.5,2.5-2.5s2.5,1.1,2.5,2.5C262.4,236.2,261.2,237.3,259.8,237.3z"/>
	</g>
</g>
<g>
	<g>
		<path class="st4" d="M188.9,233.4c-1.8,0.3-3.2,1.8-3.5,3.6c-0.3,1.7,0.4,3.3,1.6,4.3c1.2,1,2.1,2.4,2.5,3.9l0.3,1l0.3-1
			c0.4-1.6,1.5-2.9,2.7-4c0.9-0.8,1.5-2,1.5-3.3C194.3,235,191.8,232.9,188.9,233.4z M189.8,240.3c-1.4,0-2.5-1.1-2.5-2.5
			s1.1-2.5,2.5-2.5s2.5,1.1,2.5,2.5C192.4,239.2,191.2,240.3,189.8,240.3z"/>
	</g>
</g>
<g>
	<g>
		<path class="st4" d="M308.9,176.4c-1.8,0.3-3.2,1.8-3.5,3.6c-0.3,1.7,0.4,3.3,1.6,4.3s2.1,2.4,2.5,3.9l0.3,1l0.3-1
			c0.4-1.6,1.5-2.9,2.7-4c0.9-0.8,1.5-2,1.5-3.3C314.3,178,311.8,175.9,308.9,176.4z M309.8,183.3c-1.4,0-2.5-1.1-2.5-2.5
			s1.1-2.5,2.5-2.5s2.5,1.1,2.5,2.5C312.4,182.2,311.2,183.3,309.8,183.3z"/>
	</g>
</g>
<line class="st17" x1="363.8" y1="273.6" x2="260.9" y2="244.2"/>
<path class="st18" d="M366,315.9c0,0,2.5,1.1,0,2.1s-3.3,1.2-5,2.9s-2.7,2.4-1.8,3.2c0.8,0.8,2.3-1.1,3.8,0c1.5,1.1,2.3,2.1,2.3,2.1
	s1-2.3,1.9-0.9s1.2,1.9,0.9,3.1s-2.8-1-2,2.2s2.1,3.6,2.1,3.6s1.6,1.1,3.1,0s2.5-2.1,3.5-3.6s-1.3-2,2.3-2.5s3.3-1.4,5.5-1.2
	c2.3,0.2,2,0,3.3-0.8s-0.8-1.1,1.3-0.8s3.3,2.5,3.8-0.1s0.5-2.4,1-4.4s-2.5-2.9-3.3-2.9s-2.5,2.7-3.5,2.5s-3.5,2.8-4.5,0
	s-2.1-3.3-2.3-4.5c-0.2-1.3-0.2-1.3-0.2-1.3L366,315.9z"/>
</svg>
