<?xml version="1.0" encoding="utf-8"?><svg width="1535" height="1407" viewBox="0 0 1535 1407" xmlns="http://www.w3.org/2000/svg" xmlns:xlink="http://www.w3.org/1999/xlink"><svg version="1.1" id="svgsprite_award" x="1024" viewBox="0 0 510.6 510.6" xml:space="preserve" width="510.6" height="510.6" xmlns="http://www.w3.org/2000/svg"><style>.ast0{fill:#404040}</style><path class="ast0" d="M432.2 300.3H78.4v74.5h353.8v-28z"/><path class="ast0" d="M59.8 374.8v-18.6h-52l30.7 30.7c1.7 1.7 2.7 4.1 2.7 6.6s-1 4.8-2.7 6.6L7.8 430.6h135.8v-37.2H78.4c-10.2 0-18.6-8.4-18.6-18.6zM502.8 356.1h-52v18.6c0 10.3-8.3 18.6-18.6 18.6H367v37.2h135.8L472.1 400c-1.7-1.7-2.7-4.1-2.7-6.6s1-4.8 2.7-6.6l30.7-30.7zM31.8 246.2l-5.6 32L55.5 263c2.7-1.4 5.9-1.4 8.6 0l29.4 15.2-5.6-32c-.5-3 .5-6.2 2.7-8.3l23.5-22.6-32.6-4.7c-3-.4-5.6-2.3-7-5l-14.7-29.3-14.7 29.3c-1.4 2.7-4 4.6-7 5l-32.6 4.7L29 237.9c2.3 2.1 3.3 5.2 2.8 8.3zM422.7 246.2l-5.6 32 29.4-15.2c2.7-1.4 5.9-1.4 8.6 0l29.4 15.2-5.6-32c-.5-3 .5-6.2 2.7-8.3l23.5-22.6-32.6-4.7c-3-.4-5.6-2.3-7-5l-14.7-29.3-14.7 29.3c-1.4 2.7-4 4.6-7 5l-32.6 4.7 23.5 22.6c2.2 2.1 3.3 5.2 2.7 8.3zM199.3 130.2l-12.1 66 63.9-31.6c2.6-1.3 5.6-1.3 8.2 0l63.9 31.6-12.1-66c-.6-3.2.5-6.4 2.9-8.5l50.5-46.2-70.4-9.6c-3-.4-5.6-2.2-7-4.9L255.3 0l-32 60.9c-1.4 2.7-4 4.5-7 4.9l-70.4 9.6 50.5 46.2c2.4 2.2 3.5 5.4 2.9 8.6z"/></svg><svg viewBox="0 0 477.175 477.175" width="477.18" height="477.18" id="svgsprite_back" x="1024" y="510.6" xmlns="http://www.w3.org/2000/svg"><path d="M145.188 238.575l215.5-215.5c5.3-5.3 5.3-13.8 0-19.1s-13.8-5.3-19.1 0l-225.1 225.1c-5.3 5.3-5.3 13.8 0 19.1l225.1 225c2.6 2.6 6.1 4 9.5 4s6.9-1.3 9.5-4c5.3-5.3 5.3-13.8 0-19.1l-215.4-215.5z"/></svg><svg version="1.1" id="svgsprite_brush" viewBox="0 0 512 512" xml:space="preserve" width="512" height="512" xmlns="http://www.w3.org/2000/svg"><style>.cst0{fill:#404040}</style><path class="cst0" d="M271 309.4V437h62.2c-8.4-11.7-13.4-26.1-13.4-41.6v-86H271zM349.8 309.4v86c0 22.9 18.7 41.6 41.6 41.6H412c-8.4-11.7-13.4-26.1-13.4-41.6v-86h-48.8zM428.6 309.4v86c0 22.9 18.7 41.6 41.6 41.6h20.6c-8.4-11.7-13.4-26.1-13.4-41.6v-86h-48.8zM41.2 391.7c0 17.3-6.3 33.1-16.7 45.3h17.3c22.9 0 41.6-18.6 41.6-41.6v-86H41.2v82.3zM192.2 395.4c0 15.5-5 29.8-13.4 41.6H241V309.4h-48.8v86zM512 279.4v-58.2H182.9c-20.2 0-36.6-16.4-36.6-36.6 0-20.2 16.4-36.6 36.6-36.6h256c20.2 0 36.6-16.4 36.6-36.6S459.1 75 438.9 75H113.8c-12.5 0-24.1 6.3-30.8 16.8L0 221.3v58.1h512zM113.4 395.4c0 15.5-5 29.8-13.4 41.6h20.6c22.9 0 41.6-18.6 41.6-41.6v-86h-48.8v86z"/></svg><svg version="1.1" id="svgsprite_diamond" x="512" viewBox="0 0 512 512" xml:space="preserve" width="512" height="512" xmlns="http://www.w3.org/2000/svg"><style>.dst0{fill:#404040}</style><path class="dst0" d="M181.8 176L256 458.7 330.2 176zM256 47.7l-63.8 98.1h127.6zM150.6 176H6l222.8 298zM361.4 176l-78.2 298L506 176zM78.7 38L0 145.8h156.2L226.3 38zM433.3 38H285.7l70.1 107.8H512z"/></svg><svg version="1.1" id="svgsprite_paint-brush" y="512" viewBox="0 0 512 512" xml:space="preserve" width="512" height="512" xmlns="http://www.w3.org/2000/svg"><style>.est0{fill:#404040}</style><path class="est0" d="M439.8 0c-22.4 0-43.1 10.3-56.8 28l-79.1 101.7c-11.7 15-31.6 21.1-49.8 15.1l-32-10.7c-16.3-5.4-34-1.3-46.1 10.9l-18.7 18.7 191 191L367 336c12.1-12.1 16.3-29.8 10.9-46.1l-10.7-32c-6-18.1 0-38.1 15.1-49.8L484 129c17.7-13.7 28-34.4 28-56.8C512 32.5 479.5 0 439.8 0zm3.9 89.5c-5.9 5.9-15.4 5.9-21.2 0-5.9-5.9-5.9-15.4 0-21.2 5.9-5.9 15.4-5.9 21.2 0 5.9 5.8 5.9 15.3 0 21.2zM199.7 460.8c-11.3-11.3-17.6-26.4-17.6-42.4s6.2-31.1 17.6-42.4l10.6-10.6c5.8-5.8 5.8-15.4 0-21.2-2.5-2.5-6.4-4-10.6-4-4.2 0-8.1 1.4-10.6 4l-21.2 21.2c-16.9 17-45.8 17.7-63.6 0-15.2-15.2-16.3-40.4-6.1-56.1 8-12.3 6.3-28.6-4.1-39-12-12-31.4-12-43.3 0l-42 42C-2.9 324-2.9 343 8.8 354.7l148.5 148.5c11.7 11.7 30.7 11.7 42.5 0L221 482l5.9-5.9c-10.2-2.6-19.6-7.7-27.2-15.3z"/><path class="est0" d="M136.1 184.9l-42.4 42.4-6 6c10.4 2.7 19.9 7.8 27.7 15.6 19.4 19.4 23.4 49.5 9.8 73.3l-.2.3c-5.8 5.8-5.8 15.2 0 21.1 6.1 6.1 16 6.1 22.1 0l10.2-10.2 10.7-10.7h.1c16.5-16.5 46.5-17 63.6 0 17.6 17.6 17.6 46.1 0 63.6L221 397.1s0 .1-.1.1c-11.6 11.7-11.6 30.4 0 42.2 0 0 0 .1.1.1 10.3 10.3 30.1 12.3 42.4 0l63.7-63.7-191-190.9z"/></svg><svg version="1.1" id="svgsprite_shines" x="512" y="512" viewBox="0 0 512 512" xml:space="preserve" width="512" height="512" xmlns="http://www.w3.org/2000/svg"><style>.fst0{fill:#404040}</style><path class="fst0" d="M298.1 136.7c-62.1-13-110.6-61.5-123.6-123.6C173 5.5 166.2 0 158.4 0s-14.5 5.5-16.1 13.1c-13 62.1-61.5 110.6-123.6 123.6-7.6 1.6-13.1 8.3-13.1 16.1s5.5 14.5 13.1 16.1c62.1 13 110.6 61.5 123.6 123.6 1.6 7.6 8.3 13.1 16.1 13.1 7.8 0 14.5-5.5 16.1-13.1 13-62.1 61.5-110.6 123.6-123.6 7.6-1.6 13.1-8.3 13.1-16.1 0-7.8-5.4-14.5-13.1-16.1zM270.9 408.5c-29.2-6.1-52.1-29-58.2-58.2-1.6-7.6-8.3-13.1-16.1-13.1-7.8 0-14.5 5.5-16.1 13.1-6.1 29.2-29 52.1-58.2 58.2-7.6 1.6-13.1 8.3-13.1 16.1s5.5 14.5 13.1 16.1c29.2 6.1 52.1 29 58.2 58.2 1.6 7.6 8.3 13.1 16.1 13.1 7.8 0 14.5-5.5 16.1-13.1 6.1-29.2 29-52.1 58.2-58.2 7.6-1.6 13.1-8.3 13.1-16.1 0-7.8-5.4-14.5-13.1-16.1zM493.2 256.1c-39.5-8.3-70.4-39.2-78.7-78.7-1.6-7.6-8.3-13.1-16.1-13.1-7.8 0-14.5 5.5-16.1 13.1-8.3 39.5-39.2 70.4-78.7 78.7-7.6 1.6-13.1 8.3-13.1 16.1s5.5 14.5 13.1 16.1c39.5 8.3 70.4 39.2 78.7 78.7 1.6 7.6 8.3 13.1 16.1 13.1 7.8 0 14.5-5.5 16.1-13.1 8.3-39.5 39.2-70.4 78.7-78.7 7.6-1.6 13.1-8.3 13.1-16.1s-5.4-14.5-13.1-16.1z"/></svg><svg version="1.1" id="svgsprite_water-drop" y="1024" viewBox="0 0 382.8 382.8" xml:space="preserve" width="382.8" height="382.8" xmlns="http://www.w3.org/2000/svg"><style>.gst0{fill:#404040}</style><path class="gst0" d="M141.4 193.6c12-12 19.6-28.8 19.6-47.6 0-6.8-2-14.4-5.2-22.4-3.6-8.4-8.4-16.8-14-25.6 0-.4-.4-.4-.4-.8-11.6-17.6-26.8-34.8-39.6-49.6l-8-9.2-8 9.2C61 76.4 26.6 116 26.6 146c0 18.4 7.6 35.2 19.6 47.6 12 12 28.8 19.6 47.6 19.6 18.4 0 35.2-7.6 47.6-19.6zM321 2.4L319 0l-2 2.4c-14.8 17.2-35.2 40.8-35.2 57.6 0 10.4 4 19.6 10.8 26.4s16 10.8 26.4 10.8 19.6-4 26.4-10.8 10.8-16 10.8-26.4c0-16.8-20.4-40.4-35.2-57.6z"/><path class="gst0" d="M192.6 58c-6 7.2-12.8 14.8-19.6 23.2l-10.4 12c4.8 7.6 8.8 15.2 12 22.8 4.4 10.4 6.8 20.4 6.8 30 0 24-9.6 46-25.6 62s-37.6 25.6-62 25.6c-5.6 0-10.8-.4-16-1.6-2-.4-3.6-.8-5.6-1.2l-2.4 9.6c-1.2 6-2 11.6-2 17.6 0 34.4 14 65.6 36.4 88.4 22.8 22.8 54 36.4 88.4 36.4s65.6-14 88.4-36.4 36.4-54 36.4-88.4c0-54.8-61.2-125.2-105.2-176.4-6.8-8.8-13.2-16.4-19.6-23.6z"/></svg></svg>