<?xml version="1.0" encoding="iso-8859-1"?><svg width="990" height="512" viewBox="0 0 990 512" xmlns="http://www.w3.org/2000/svg" xmlns:xlink="http://www.w3.org/1999/xlink"><svg viewBox="0 0 477.175 477.175" width="477.18" height="477.18" id="svgsprite_back" x="512" xmlns="http://www.w3.org/2000/svg"><path d="M145.188 238.575l215.5-215.5c5.3-5.3 5.3-13.8 0-19.1s-13.8-5.3-19.1 0l-225.1 225.1c-5.3 5.3-5.3 13.8 0 19.1l225.1 225c2.6 2.6 6.1 4 9.5 4s6.9-1.3 9.5-4c5.3-5.3 5.3-13.8 0-19.1l-215.4-215.5z"/></svg><svg version="1.1" id="svgsprite_shines" viewBox="0 0 512 512" xml:space="preserve" width="512" height="512" xmlns="http://www.w3.org/2000/svg"><style>.bst0{fill:#404040}</style><path class="bst0" d="M298.1 136.7c-62.1-13-110.6-61.5-123.6-123.6C173 5.5 166.2 0 158.4 0s-14.5 5.5-16.1 13.1c-13 62.1-61.5 110.6-123.6 123.6-7.6 1.6-13.1 8.3-13.1 16.1s5.5 14.5 13.1 16.1c62.1 13 110.6 61.5 123.6 123.6 1.6 7.6 8.3 13.1 16.1 13.1 7.8 0 14.5-5.5 16.1-13.1 13-62.1 61.5-110.6 123.6-123.6 7.6-1.6 13.1-8.3 13.1-16.1 0-7.8-5.4-14.5-13.1-16.1zM270.9 408.5c-29.2-6.1-52.1-29-58.2-58.2-1.6-7.6-8.3-13.1-16.1-13.1-7.8 0-14.5 5.5-16.1 13.1-6.1 29.2-29 52.1-58.2 58.2-7.6 1.6-13.1 8.3-13.1 16.1s5.5 14.5 13.1 16.1c29.2 6.1 52.1 29 58.2 58.2 1.6 7.6 8.3 13.1 16.1 13.1 7.8 0 14.5-5.5 16.1-13.1 6.1-29.2 29-52.1 58.2-58.2 7.6-1.6 13.1-8.3 13.1-16.1 0-7.8-5.4-14.5-13.1-16.1zM493.2 256.1c-39.5-8.3-70.4-39.2-78.7-78.7-1.6-7.6-8.3-13.1-16.1-13.1-7.8 0-14.5 5.5-16.1 13.1-8.3 39.5-39.2 70.4-78.7 78.7-7.6 1.6-13.1 8.3-13.1 16.1s5.5 14.5 13.1 16.1c39.5 8.3 70.4 39.2 78.7 78.7 1.6 7.6 8.3 13.1 16.1 13.1 7.8 0 14.5-5.5 16.1-13.1 8.3-39.5 39.2-70.4 78.7-78.7 7.6-1.6 13.1-8.3 13.1-16.1s-5.4-14.5-13.1-16.1z"/></svg></svg>