<?xml version="1.0" encoding="utf-8"?>
<!-- Generator: Adobe Illustrator 19.2.1, SVG Export Plug-In . SVG Version: 6.00 Build 0)  -->
<svg version="1.1" id="Capa_1" xmlns="http://www.w3.org/2000/svg" xmlns:xlink="http://www.w3.org/1999/xlink" x="0px" y="0px"
	 viewBox="0 0 512 512" style="enable-background:new 0 0 512 512;" xml:space="preserve">
<style type="text/css">
	.st0{fill:#404040;}
</style>
<g>
	<g>
		<path class="st0" d="M439.8,0c-22.4,0-43.1,10.3-56.8,28l-79.1,101.7c-11.7,15-31.6,21.1-49.8,15.1l-32-10.7
			c-16.3-5.4-34-1.3-46.1,10.9l-18.7,18.7l191,191L367,336c12.1-12.1,16.3-29.8,10.9-46.1l-10.7-32c-6-18.1,0-38.1,15.1-49.8
			L484,129c17.7-13.7,28-34.4,28-56.8C512,32.5,479.5,0,439.8,0z M443.7,89.5c-5.9,5.9-15.4,5.9-21.2,0c-5.9-5.9-5.9-15.4,0-21.2
			c5.9-5.9,15.4-5.9,21.2,0C449.6,74.1,449.6,83.6,443.7,89.5z"/>
	</g>
</g>
<g>
	<g>
		<path class="st0" d="M199.7,460.8c-11.3-11.3-17.6-26.4-17.6-42.4c0-16,6.2-31.1,17.6-42.4l10.6-10.6c5.8-5.8,5.8-15.4,0-21.2
			c-2.5-2.5-6.4-4-10.6-4c-4.2,0-8.1,1.4-10.6,4l-21.2,21.2c0,0,0,0,0,0c-16.9,17-45.8,17.7-63.6,0c0,0,0,0,0,0c0,0,0,0,0,0
			c-15.2-15.2-16.3-40.4-6.1-56.1c8-12.3,6.3-28.6-4.1-39c-12-12-31.4-12-43.3,0l-42,42c-11.7,11.7-11.7,30.7,0,42.4l148.5,148.5
			c11.7,11.7,30.7,11.7,42.5,0L221,482l5.9-5.9C216.7,473.5,207.3,468.4,199.7,460.8z"/>
	</g>
</g>
<g>
	<g>
		<path class="st0" d="M136.1,184.9l-42.4,42.4l-6,6c10.4,2.7,19.9,7.8,27.7,15.6c19.4,19.4,23.4,49.5,9.8,73.3l-0.2,0.3
			c-5.8,5.8-5.8,15.2,0,21.1c6.1,6.1,16,6.1,22.1,0l10.2-10.2l10.7-10.7c0,0,0,0,0.1,0c16.5-16.5,46.5-17,63.6,0
			c17.6,17.6,17.6,46.1,0,63.6L221,397.1c0,0,0,0.1-0.1,0.1c-11.6,11.7-11.6,30.4,0,42.2c0,0,0,0.1,0.1,0.1l0,0
			c10.3,10.3,30.1,12.3,42.4,0l63.7-63.7L136.1,184.9z"/>
	</g>
</g>
</svg>
