<?xml version="1.0" encoding="utf-8"?>
<!-- Generator: Adobe Illustrator 19.2.1, SVG Export Plug-In . SVG Version: 6.00 Build 0)  -->
<svg version="1.1" id="Capa_1" xmlns="http://www.w3.org/2000/svg" xmlns:xlink="http://www.w3.org/1999/xlink" x="0px" y="0px"
	 viewBox="0 0 510.6 510.6" style="enable-background:new 0 0 510.6 510.6;" xml:space="preserve">
<style type="text/css">
	.st0{fill:#404040;}
</style>
<polygon class="st0" points="432.2,300.3 78.4,300.3 78.4,374.8 432.2,374.8 432.2,346.9 432.2,346.8 432.2,346.8 "/>
<path class="st0" d="M59.8,374.8v-18.6h-52l30.7,30.7c1.7,1.7,2.7,4.1,2.7,6.6s-1,4.8-2.7,6.6L7.8,430.6h135.8v-37.2H78.4
	C68.2,393.4,59.8,385,59.8,374.8z"/>
<path class="st0" d="M502.8,356.1h-52v18.6c0,10.3-8.3,18.6-18.6,18.6H367v37.2h135.8L472.1,400c-1.7-1.7-2.7-4.1-2.7-6.6
	s1-4.8,2.7-6.6L502.8,356.1z"/>
<path class="st0" d="M31.8,246.2l-5.6,32L55.5,263c2.7-1.4,5.9-1.4,8.6,0l29.4,15.2l-5.6-32c-0.5-3,0.5-6.2,2.7-8.3l23.5-22.6
	l-32.6-4.7c-3-0.4-5.6-2.3-7-5l-14.7-29.3l-14.7,29.3c-1.4,2.7-4,4.6-7,5l-32.6,4.7L29,237.9C31.3,240,32.3,243.1,31.8,246.2z"/>
<path class="st0" d="M422.7,246.2l-5.6,32l29.4-15.2c2.7-1.4,5.9-1.4,8.6,0l29.4,15.2l-5.6-32c-0.5-3,0.5-6.2,2.7-8.3l23.5-22.6
	l-32.6-4.7c-3-0.4-5.6-2.3-7-5l-14.7-29.3l-14.7,29.3c-1.4,2.7-4,4.6-7,5l-32.6,4.7l23.5,22.6C422.2,240,423.3,243.1,422.7,246.2z"
	/>
<path class="st0" d="M199.3,130.2l-12.1,66l63.9-31.6c2.6-1.3,5.6-1.3,8.2,0l63.9,31.6l-12.1-66c-0.6-3.2,0.5-6.4,2.9-8.5l50.5-46.2
	l-70.4-9.6c-3-0.4-5.6-2.2-7-4.9L255.3,0l-32,60.9c-1.4,2.7-4,4.5-7,4.9l-70.4,9.6l50.5,46.2C198.8,123.8,199.9,127,199.3,130.2z"/>
</svg>
