<?xml version="1.0" encoding="utf-8"?>
<!-- Generator: Adobe Illustrator 19.2.1, SVG Export Plug-In . SVG Version: 6.00 Build 0)  -->
<svg version="1.1" id="Capa_1" xmlns="http://www.w3.org/2000/svg" xmlns:xlink="http://www.w3.org/1999/xlink" x="0px" y="0px"
	 viewBox="0 0 512 512" style="enable-background:new 0 0 512 512;" xml:space="preserve">
<style type="text/css">
	.st0{fill:#404040;}
</style>
<g>
	<g>
		<path class="st0" d="M298.1,136.7c-62.1-13-110.6-61.5-123.6-123.6C173,5.5,166.2,0,158.4,0s-14.5,5.5-16.1,13.1
			c-13,62.1-61.5,110.6-123.6,123.6c-7.6,1.6-13.1,8.3-13.1,16.1s5.5,14.5,13.1,16.1c62.1,13,110.6,61.5,123.6,123.6
			c1.6,7.6,8.3,13.1,16.1,13.1c7.8,0,14.5-5.5,16.1-13.1c13-62.1,61.5-110.6,123.6-123.6c7.6-1.6,13.1-8.3,13.1-16.1
			C311.2,145,305.8,138.3,298.1,136.7z"/>
	</g>
</g>
<g>
	<g>
		<path class="st0" d="M270.9,408.5c-29.2-6.1-52.1-29-58.2-58.2c-1.6-7.6-8.3-13.1-16.1-13.1c-7.8,0-14.5,5.5-16.1,13.1
			c-6.1,29.2-29,52.1-58.2,58.2c-7.6,1.6-13.1,8.3-13.1,16.1s5.5,14.5,13.1,16.1c29.2,6.1,52.1,29,58.2,58.2
			c1.6,7.6,8.3,13.1,16.1,13.1c7.8,0,14.5-5.5,16.1-13.1c6.1-29.2,29-52.1,58.2-58.2c7.6-1.6,13.1-8.3,13.1-16.1
			C284,416.8,278.6,410.1,270.9,408.5z"/>
	</g>
</g>
<g>
	<g>
		<path class="st0" d="M493.2,256.1c-39.5-8.3-70.4-39.2-78.7-78.7c-1.6-7.6-8.3-13.1-16.1-13.1c-7.8,0-14.5,5.5-16.1,13.1
			c-8.3,39.5-39.2,70.4-78.7,78.7c-7.6,1.6-13.1,8.3-13.1,16.1s5.5,14.5,13.1,16.1c39.5,8.3,70.4,39.2,78.7,78.7
			c1.6,7.6,8.3,13.1,16.1,13.1c7.8,0,14.5-5.5,16.1-13.1c8.3-39.5,39.2-70.4,78.7-78.7c7.6-1.6,13.1-8.3,13.1-16.1
			S500.9,257.7,493.2,256.1z"/>
	</g>
</g>
</svg>
