<?xml version="1.0" encoding="utf-8"?>
<!-- Generator: Adobe Illustrator 19.2.1, SVG Export Plug-In . SVG Version: 6.00 Build 0)  -->
<svg version="1.1" id="Capa_1" xmlns="http://www.w3.org/2000/svg" xmlns:xlink="http://www.w3.org/1999/xlink" x="0px" y="0px"
	 viewBox="0 0 512 512" style="enable-background:new 0 0 512 512;" xml:space="preserve">
<style type="text/css">
	.st0{fill:#404040;}
</style>
<g>
	<path class="st0" d="M271,309.4V437h62.2c-8.4-11.7-13.4-26.1-13.4-41.6v-86H271z"/>
	<path class="st0" d="M349.8,309.4v86c0,22.9,18.7,41.6,41.6,41.6H412c-8.4-11.7-13.4-26.1-13.4-41.6v-86H349.8z"/>
	<path class="st0" d="M428.6,309.4v86c0,22.9,18.7,41.6,41.6,41.6h20.6c-8.4-11.7-13.4-26.1-13.4-41.6v-86H428.6z"/>
	<path class="st0" d="M41.2,391.7c0,17.3-6.3,33.1-16.7,45.3h17.3c22.9,0,41.6-18.6,41.6-41.6v-86H41.2L41.2,391.7z"/>
	<path class="st0" d="M192.2,395.4c0,15.5-5,29.8-13.4,41.6H241V309.4h-48.8L192.2,395.4L192.2,395.4z"/>
	<path class="st0" d="M512,279.4v-58.2l-329.1,0c-20.2,0-36.6-16.4-36.6-36.6c0-20.2,16.4-36.6,36.6-36.6l256,0
		c20.2,0,36.6-16.4,36.6-36.6S459.1,75,438.9,75H113.8c-12.5,0-24.1,6.3-30.8,16.8L0,221.3v58.1H512z"/>
	<path class="st0" d="M113.4,395.4c0,15.5-5,29.8-13.4,41.6h20.6c22.9,0,41.6-18.6,41.6-41.6v-86h-48.8L113.4,395.4L113.4,395.4z"/>
</g>
</svg>
